<svg width="1340" height="1023" viewBox="0 0 1340 1023" fill="none" xmlns="http://www.w3.org/2000/svg">
<path d="M0 32C0 14.3269 14.3269 1.05946e-05 32 1.05946e-05H491C508.673 1.05946e-05 523 14.3269 523 32V39.1522C523 56.8254 537.327 71.1522 555 71.1522H783.5C801.173 71.1522 815.5 56.8253 815.5 39.1522V32C815.5 14.3269 829.827 2.89396e-07 847.5 6.46384e-07L1308 9.94825e-06C1325.67 1.03052e-05 1340 14.3269 1340 32V991C1340 1008.67 1325.67 1023 1308 1023H32C14.3269 1023 0 1008.67 0 991V32Z" fill="#2C2C2C" fill-opacity="0.54"/>
<path d="M32 0.5H491C508.397 0.5 522.5 14.603 522.5 32V39.1523C522.5 57.1016 537.051 71.6523 555 71.6523H783.5C801.449 71.6523 816 57.1015 816 39.1523V32C816 14.603 830.103 0.5 847.5 0.5H1308C1325.4 0.5 1339.5 14.603 1339.5 32V991C1339.5 1008.4 1325.4 1022.5 1308 1022.5H32C14.603 1022.5 0.5 1008.4 0.5 991V32C0.5 14.603 14.603 0.5 32 0.5Z" stroke="#444444" stroke-opacity="0.5"/>
</svg>
