<svg width="1340" height="720" viewBox="0 0 1340 720" fill="none" xmlns="http://www.w3.org/2000/svg">
<path d="M0 32C0 14.3269 14.3269 0 32 0H1033C1050.67 0 1065 14.3269 1065 32V56.4766C1065 74.1497 1079.33 88.4766 1097 88.4766H1308C1325.67 88.4766 1340 102.803 1340 120.477V723C1340 740.673 1325.67 755 1308 755H32C14.3269 755 0 740.673 0 723V32Z" fill="#2C2C2C"/>
<path d="M32 0.5H1033C1050.4 0.5 1064.5 14.603 1064.5 32V56.4766C1064.5 74.4258 1079.05 88.9766 1097 88.9766H1308C1325.4 88.9766 1339.5 103.08 1339.5 120.477V723C1339.5 740.397 1325.4 754.5 1308 754.5H32C14.603 754.5 0.5 740.397 0.5 723V32C0.5 14.603 14.603 0.5 32 0.5Z" stroke="#444444" stroke-opacity="0.5"/>
</svg>
