<svg width="688" height="755" viewBox="0 0 688 755" fill="none" xmlns="http://www.w3.org/2000/svg">
<path d="M0 24C0 10.7451 10.7452 0 24 0H448C459.322 0 468.5 9.17816 468.5 20.5C468.5 31.8218 477.678 41 489 41H664C677.255 41 688 51.7452 688 65L688 731C688 744.255 677.255 755 664 755H24C10.7452 755 0 744.255 0 731V24Z" fill="#2C2C2C"/>
<path d="M24 0.5H448C459.046 0.5 468 9.4543 468 20.5C468 32.098 477.402 41.5 489 41.5H664C676.979 41.5 687.5 52.0213 687.5 65V731C687.5 743.979 676.979 754.5 664 754.5H24C11.0213 754.5 0.5 743.979 0.5 731V24C0.5 11.0213 11.0213 0.5 24 0.5Z" stroke="#444444" stroke-opacity="0.5"/>
</svg>
