<svg width="1340" height="727" viewBox="0 0 1340 727" fill="none" xmlns="http://www.w3.org/2000/svg">
<path d="M266 71C283.673 71 298 56.6731 298 39V32C298 14.3269 312.327 0 330 0H1308C1325.67 0 1340 14.3269 1340 32V695C1340 712.673 1325.67 727 1308 727H32C14.3269 727 0 712.673 0 695V103C0 85.3269 14.3269 71 32 71H266Z" fill="#2C2C2C" fill-opacity="0.38"/>
<path d="M330 1H1308C1325.12 1 1339 14.8792 1339 32V695C1339 712.121 1325.12 726 1308 726H32C14.8792 726 1 712.121 1 695V103C1 85.8792 14.8792 72 32 72H266C284.225 72 299 57.2254 299 39V32C299 14.8792 312.879 1 330 1Z" stroke="#444444" stroke-opacity="0.5" stroke-width="2"/>
</svg>
