<svg width="690" height="728" viewBox="0 0 690 728" fill="none" xmlns="http://www.w3.org/2000/svg">
<path d="M434 60.189C420.745 60.189 410 49.4438 410 36.189V24C410 10.7452 399.255 7.10978e-06 386 6.23563e-06L291.448 0L23.9999 7.17459e-06C10.7451 7.53016e-06 0 10.7452 0 24V704C0 717.255 10.7452 728 24 728H666C679.255 728 690 717.255 690 704V84.189C690 70.9342 679.255 60.189 666 60.189H434Z" fill="#2C2C2C" fill-opacity="0.44"/>
<path d="M386 0.5H24C11.0213 0.5 0.500004 11.0213 0.5 24V704C0.5 716.979 11.0213 727.5 24 727.5H666C678.979 727.5 689.5 716.979 689.5 704V84.1895C689.5 71.2108 678.979 60.6895 666 60.6895H434C420.469 60.6895 409.5 49.7202 409.5 36.1895V24C409.5 11.0213 398.979 0.500001 386 0.5Z" stroke="#444444" stroke-opacity="0.5"/>
</svg>
