<svg width="256" height="1323" viewBox="0 0 256 1323" fill="none" xmlns="http://www.w3.org/2000/svg">
<path d="M74.0657 44C63.02 44 54.0657 35.0457 54.0657 24V20C54.0657 8.95431 45.1114 8.61723e-06 34.0657 1.01276e-05L20 1.20509e-05C8.9543 1.35613e-05 0 8.95432 0 20V1303C0 1314.05 8.9543 1323 20 1323H236C247.046 1323 256 1314.05 256 1303V64C256 52.9543 247.046 44 236 44L74.0657 44Z" fill="#2C2C2C" fill-opacity="0.44"/>
<path d="M34.0654 0.5H20C9.23045 0.500002 0.500006 9.23046 0.5 20V1303C0.5 1313.77 9.23044 1322.5 20 1322.5H236C246.77 1322.5 255.5 1313.77 255.5 1303V64C255.5 53.2304 246.77 44.5 236 44.5H74.0654C62.7437 44.4999 53.5654 35.3218 53.5654 24V20C53.5654 9.23045 44.835 0.499999 34.0654 0.5Z" stroke="#444444" stroke-opacity="0.5"/>
</svg>
