<svg width="256" height="420" viewBox="0 0 256 420" fill="none" xmlns="http://www.w3.org/2000/svg">
<path d="M167 49.4118C158.163 49.4118 151 42.2483 151 33.4118V16C151 7.16345 143.837 0 135 0H16C7.16344 0 0 7.16344 0 16V404C0 412.837 7.16344 420 16 420H240C248.837 420 256 412.837 256 404V65.4118C256 56.5752 248.837 49.4118 240 49.4118H167Z" fill="#2C2C2C" fill-opacity="0.54"/>
<path d="M135 1H16C7.71572 1 1 7.71573 1 16V404C1.00002 412.284 7.71573 419 16 419H240C248.284 419 255 412.284 255 404V65.4121C255 57.1278 248.284 50.4121 240 50.4121H167C157.611 50.4121 150 42.8008 150 33.4121V16C150 7.71573 143.284 1 135 1Z" stroke="#444444" stroke-opacity="0.5" stroke-width="2"/>
<g filter="url(#filter0_f_2002_12645)">
<ellipse cx="127.932" cy="450.04" rx="143.175" ry="111.499" transform="rotate(-90 127.932 450.04)" fill="#06CE22" fill-opacity="0.5"/>
</g>
<g opacity="0.8">
<path d="M313.592 245.226C-89.986 192.35 260.364 599.865 -216.988 529.943" stroke="#E5EAE2" stroke-opacity="0.4" stroke-width="2" stroke-linejoin="round" stroke-dasharray="10 10"/>
<g opacity="0.5">
<rect x="0.10726" y="-0.698924" width="39" height="39" rx="19.5" transform="matrix(0.806184 -0.591665 -0.591665 -0.806184 232.143 267.184)" fill="#B1FFBC" fill-opacity="0.32"/>
<rect x="0.10726" y="-0.698924" width="39" height="39" rx="19.5" transform="matrix(0.806184 -0.591665 -0.591665 -0.806184 232.143 267.184)" stroke="#8CEB9A"/>
<circle cx="10" cy="10" r="9.5" transform="matrix(0.806184 -0.591665 -0.591665 -0.806184 234.682 254.404)" fill="#B1FFBC" stroke="#8CEB9A"/>
</g>
</g>
<defs>
<filter id="filter0_f_2002_12645" x="-383.567" y="-93.1349" width="1023" height="1086.35" filterUnits="userSpaceOnUse" color-interpolation-filters="sRGB">
<feFlood flood-opacity="0" result="BackgroundImageFix"/>
<feBlend mode="normal" in="SourceGraphic" in2="BackgroundImageFix" result="shape"/>
<feGaussianBlur stdDeviation="200" result="effect1_foregroundBlur_2002_12645"/>
</filter>
</defs>
</svg>
