<svg width="689" height="732" viewBox="0 0 689 732" fill="none" xmlns="http://www.w3.org/2000/svg">
<path d="M149.752 66.8006C163.007 66.8006 173.752 56.0554 173.752 42.8006L173.752 24C173.752 10.7452 184.497 8.18074e-06 197.752 8.18074e-06H292.825L397.975 0L665 7.5061e-06C678.255 7.87869e-06 689 10.7452 689 24V708C689 721.255 678.255 732 665 732H24C10.7452 732 0 721.255 0 708V90.8006C0 77.5458 10.7452 66.8006 24 66.8006H149.752Z" fill="#2C2C2C" fill-opacity="0.44"/>
<path d="M197.752 0.5H665C677.979 0.5 688.5 11.0213 688.5 24V708C688.5 720.979 677.979 731.5 665 731.5H24C11.0213 731.5 0.5 720.979 0.5 708V90.8008C0.5 77.8221 11.0213 67.3008 24 67.3008H149.752C163.283 67.3008 174.252 56.3317 174.252 42.8008V24C174.252 11.0214 184.773 0.500124 197.752 0.5Z" stroke="#444444" stroke-opacity="0.5"/>
</svg>
