<svg width="256" height="1729" viewBox="0 0 256 1729" fill="none" xmlns="http://www.w3.org/2000/svg">
<path d="M77.5 44C66.4543 44 57.5 35.0457 57.5 24V20C57.5 8.95431 48.5457 4.63834e-06 37.5 8.59329e-06L20 1.48592e-05C8.9543 1.88142e-05 0 8.95432 0 20V1709C0 1720.05 8.9543 1729 20 1729H236C247.046 1729 256 1720.05 256 1709V20C256 8.95426 247.046 3.86428e-07 236 8.6311e-07L219.5 1.57518e-06C208.454 2.05186e-06 199.5 8.95431 199.5 20V24C199.5 35.0457 190.546 44 179.5 44H77.5Z" fill="#2C2C2C" fill-opacity="0.44"/>
<path d="M236 0.5H219.5C208.73 0.5 200 9.23045 200 20V24C200 35.3218 190.822 44.5 179.5 44.5H77.5C66.1782 44.5 57 35.3218 57 24V20C57 9.23045 48.2695 0.499996 37.5 0.5H20C9.23046 0.500004 0.500007 9.23046 0.5 20V1709C0.5 1719.77 9.23044 1728.5 20 1728.5H236C246.77 1728.5 255.5 1719.77 255.5 1709V20C255.5 9.23045 246.77 0.5 236 0.5Z" stroke="#444444" stroke-opacity="0.5"/>
</svg>
