<svg width="1340" height="2634" viewBox="0 0 1340 2634" fill="none" xmlns="http://www.w3.org/2000/svg">
<path d="M0 32C0 14.3268 14.3269 2.94372e-05 32 2.94372e-05H541.575C556.997 2.94372e-05 569.5 12.5025 569.5 27.9252C569.5 43.3478 582.003 55.8503 597.425 55.8503H746.075C761.497 55.8503 774 43.3478 774 27.9252C774 12.5025 786.503 6.50247e-07 801.925 1.45237e-06L1308 2.77729e-05C1325.67 2.86921e-05 1340 14.3269 1340 32V2602C1340 2619.67 1325.67 2634 1308 2634H32C14.3269 2634 0 2619.67 0 2602V32Z" fill="#2C2C2C" fill-opacity="0.44"/>
<path d="M32 0.5H541.575C556.721 0.500198 569 12.7786 569 27.9248C569 43.6235 581.726 56.3504 597.425 56.3506H746.075C761.774 56.3504 774.5 43.6235 774.5 27.9248C774.5 12.7786 786.779 0.500197 801.925 0.5H1308C1325.4 0.500001 1339.5 14.603 1339.5 32V2602C1339.5 2619.4 1325.4 2633.5 1308 2633.5H32C14.603 2633.5 0.5 2619.4 0.5 2602V32C0.5 14.603 14.603 0.5 32 0.5Z" stroke="#444444" stroke-opacity="0.5"/>
</svg>
