<svg width="690" height="888" viewBox="0 0 690 888" fill="none" xmlns="http://www.w3.org/2000/svg">
<path d="M525.5 54.5C512.245 54.5 501.5 43.7548 501.5 30.5V24C501.5 10.7452 490.755 9.92417e-06 477.5 9.92417e-06H396.75L291.448 0L23.9999 9.10694e-06C10.7451 9.55829e-06 0 10.7452 0 24V864C0 877.255 10.7452 888 24 888H666C679.255 888 690 877.255 690 864V78.5C690 65.2452 679.255 54.5 666 54.5H525.5Z" fill="#2C2C2C" fill-opacity="0.44"/>
<path d="M477.5 0.5H24C11.0213 0.5 0.500004 11.0213 0.5 24V864C0.5 876.979 11.0213 887.5 24 887.5H666C678.979 887.5 689.5 876.979 689.5 864V78.5C689.5 65.5213 678.979 55 666 55H525.5C511.969 55 501 44.031 501 30.5V24C501 11.0213 490.479 0.5 477.5 0.5Z" stroke="#444444" stroke-opacity="0.5"/>
</svg>
