<svg width="256" height="1417" viewBox="0 0 256 1417" fill="none" xmlns="http://www.w3.org/2000/svg">
<path d="M141.5 43C130.454 43 121.5 34.0457 121.5 23V13.3687C121.5 5.98535 115.515 2.99277e-06 108.131 0L20 1.29071e-05C8.9543 1.45248e-05 0 8.95432 0 20V1397C0 1408.05 8.9543 1417 20 1417H236C247.046 1417 256 1408.05 256 1397V63C256 51.9543 247.046 43 236 43L141.5 43Z" fill="#2C2C2C" fill-opacity="0.44"/>
<path d="M20 0.5C9.23045 0.500002 0.500007 9.23046 0.5 20V1397C0.5 1407.77 9.23044 1416.5 20 1416.5H236C246.77 1416.5 255.5 1407.77 255.5 1397V63C255.5 52.3986 247.04 43.7736 236.503 43.5068L236 43.5H141.5C130.178 43.5 121 34.3218 121 23V13.3691C121 6.37315 115.417 0.680272 108.464 0.503906L108.131 0.5H20Z" stroke="#444444" stroke-opacity="0.5"/>
</svg>
