<svg width="203" height="213" viewBox="0 0 203 213" fill="none" xmlns="http://www.w3.org/2000/svg">
<g opacity="0.64">
<g clip-path="url(#clip0_334_14001)">
<path d="M10.2217 18.5C10.7767 18.5 11.2266 17.8284 11.2266 17C11.2266 16.1716 10.7767 15.5 10.2217 15.5C9.66672 15.5 9.2168 16.1716 9.2168 17C9.2168 17.8284 9.66672 18.5 10.2217 18.5Z" fill="url(#paint0_linear_334_14001)"/>
<path d="M10.2217 42.5C10.7767 42.5 11.2266 41.8284 11.2266 41C11.2266 40.1716 10.7767 39.5 10.2217 39.5C9.66672 39.5 9.2168 40.1716 9.2168 41C9.2168 41.8284 9.66672 42.5 10.2217 42.5Z" fill="url(#paint1_linear_334_14001)"/>
<path d="M10.2217 66.5C10.7767 66.5 11.2266 65.8284 11.2266 65C11.2266 64.1716 10.7767 63.5 10.2217 63.5C9.66672 63.5 9.2168 64.1716 9.2168 65C9.2168 65.8284 9.66672 66.5 10.2217 66.5Z" fill="url(#paint2_linear_334_14001)"/>
<path d="M10.2217 90.5C10.7767 90.5 11.2266 89.8284 11.2266 89C11.2266 88.1716 10.7767 87.5 10.2217 87.5C9.66672 87.5 9.2168 88.1716 9.2168 89C9.2168 89.8284 9.66672 90.5 10.2217 90.5Z" fill="url(#paint3_linear_334_14001)"/>
<path d="M10.2217 114.5C10.7767 114.5 11.2266 113.828 11.2266 113C11.2266 112.172 10.7767 111.5 10.2217 111.5C9.66672 111.5 9.2168 112.172 9.2168 113C9.2168 113.828 9.66672 114.5 10.2217 114.5Z" fill="url(#paint4_linear_334_14001)"/>
<path d="M10.2217 138.5C10.7767 138.5 11.2266 137.828 11.2266 137C11.2266 136.172 10.7767 135.5 10.2217 135.5C9.66672 135.5 9.2168 136.172 9.2168 137C9.2168 137.828 9.66672 138.5 10.2217 138.5Z" fill="url(#paint5_linear_334_14001)"/>
<path d="M10.2217 162.5C10.7767 162.5 11.2266 161.828 11.2266 161C11.2266 160.172 10.7767 159.5 10.2217 159.5C9.66672 159.5 9.2168 160.172 9.2168 161C9.2168 161.828 9.66672 162.5 10.2217 162.5Z" fill="url(#paint6_linear_334_14001)"/>
<path d="M10.2217 186.5C10.7767 186.5 11.2266 185.828 11.2266 185C11.2266 184.172 10.7767 183.5 10.2217 183.5C9.66672 183.5 9.2168 184.172 9.2168 185C9.2168 185.828 9.66672 186.5 10.2217 186.5Z" fill="url(#paint7_linear_334_14001)"/>
<path d="M10.2217 210.5C10.7767 210.5 11.2266 209.828 11.2266 209C11.2266 208.172 10.7767 207.5 10.2217 207.5C9.66672 207.5 9.2168 208.172 9.2168 209C9.2168 209.828 9.66672 210.5 10.2217 210.5Z" fill="url(#paint8_linear_334_14001)"/>
<path d="M26.3003 18.5C26.8553 18.5 27.3053 17.8284 27.3053 17C27.3053 16.1716 26.8553 15.5 26.3003 15.5C25.7453 15.5 25.2954 16.1716 25.2954 17C25.2954 17.8284 25.7453 18.5 26.3003 18.5Z" fill="url(#paint9_linear_334_14001)"/>
<path d="M26.3003 42.5C26.8553 42.5 27.3053 41.8284 27.3053 41C27.3053 40.1716 26.8553 39.5 26.3003 39.5C25.7453 39.5 25.2954 40.1716 25.2954 41C25.2954 41.8284 25.7453 42.5 26.3003 42.5Z" fill="url(#paint10_linear_334_14001)"/>
<path d="M26.3003 66.5C26.8553 66.5 27.3053 65.8284 27.3053 65C27.3053 64.1716 26.8553 63.5 26.3003 63.5C25.7453 63.5 25.2954 64.1716 25.2954 65C25.2954 65.8284 25.7453 66.5 26.3003 66.5Z" fill="url(#paint11_linear_334_14001)"/>
<path d="M26.3003 90.5C26.8553 90.5 27.3053 89.8284 27.3053 89C27.3053 88.1716 26.8553 87.5 26.3003 87.5C25.7453 87.5 25.2954 88.1716 25.2954 89C25.2954 89.8284 25.7453 90.5 26.3003 90.5Z" fill="url(#paint12_linear_334_14001)"/>
<path d="M26.3003 114.5C26.8553 114.5 27.3053 113.828 27.3053 113C27.3053 112.172 26.8553 111.5 26.3003 111.5C25.7453 111.5 25.2954 112.172 25.2954 113C25.2954 113.828 25.7453 114.5 26.3003 114.5Z" fill="url(#paint13_linear_334_14001)"/>
<path d="M26.3003 138.5C26.8553 138.5 27.3053 137.828 27.3053 137C27.3053 136.172 26.8553 135.5 26.3003 135.5C25.7453 135.5 25.2954 136.172 25.2954 137C25.2954 137.828 25.7453 138.5 26.3003 138.5Z" fill="url(#paint14_linear_334_14001)"/>
<path d="M26.3003 162.5C26.8553 162.5 27.3053 161.828 27.3053 161C27.3053 160.172 26.8553 159.5 26.3003 159.5C25.7453 159.5 25.2954 160.172 25.2954 161C25.2954 161.828 25.7453 162.5 26.3003 162.5Z" fill="url(#paint15_linear_334_14001)"/>
<path d="M26.3003 186.5C26.8553 186.5 27.3053 185.828 27.3053 185C27.3053 184.172 26.8553 183.5 26.3003 183.5C25.7453 183.5 25.2954 184.172 25.2954 185C25.2954 185.828 25.7453 186.5 26.3003 186.5Z" fill="url(#paint16_linear_334_14001)"/>
<path d="M26.3003 210.5C26.8553 210.5 27.3053 209.828 27.3053 209C27.3053 208.172 26.8553 207.5 26.3003 207.5C25.7453 207.5 25.2954 208.172 25.2954 209C25.2954 209.828 25.7453 210.5 26.3003 210.5Z" fill="url(#paint17_linear_334_14001)"/>
<path d="M42.3794 18.5C42.9344 18.5 43.3844 17.8284 43.3844 17C43.3844 16.1716 42.9344 15.5 42.3794 15.5C41.8244 15.5 41.3745 16.1716 41.3745 17C41.3745 17.8284 41.8244 18.5 42.3794 18.5Z" fill="url(#paint18_linear_334_14001)"/>
<path d="M42.3794 42.5C42.9344 42.5 43.3844 41.8284 43.3844 41C43.3844 40.1716 42.9344 39.5 42.3794 39.5C41.8244 39.5 41.3745 40.1716 41.3745 41C41.3745 41.8284 41.8244 42.5 42.3794 42.5Z" fill="url(#paint19_linear_334_14001)"/>
<path d="M42.3794 66.5C42.9344 66.5 43.3844 65.8284 43.3844 65C43.3844 64.1716 42.9344 63.5 42.3794 63.5C41.8244 63.5 41.3745 64.1716 41.3745 65C41.3745 65.8284 41.8244 66.5 42.3794 66.5Z" fill="url(#paint20_linear_334_14001)"/>
<path d="M42.3794 90.5C42.9344 90.5 43.3844 89.8284 43.3844 89C43.3844 88.1716 42.9344 87.5 42.3794 87.5C41.8244 87.5 41.3745 88.1716 41.3745 89C41.3745 89.8284 41.8244 90.5 42.3794 90.5Z" fill="url(#paint21_linear_334_14001)"/>
<path d="M42.3794 114.5C42.9344 114.5 43.3844 113.828 43.3844 113C43.3844 112.172 42.9344 111.5 42.3794 111.5C41.8244 111.5 41.3745 112.172 41.3745 113C41.3745 113.828 41.8244 114.5 42.3794 114.5Z" fill="url(#paint22_linear_334_14001)"/>
<path d="M42.3794 138.5C42.9344 138.5 43.3844 137.828 43.3844 137C43.3844 136.172 42.9344 135.5 42.3794 135.5C41.8244 135.5 41.3745 136.172 41.3745 137C41.3745 137.828 41.8244 138.5 42.3794 138.5Z" fill="url(#paint23_linear_334_14001)"/>
<path d="M42.3794 162.5C42.9344 162.5 43.3844 161.828 43.3844 161C43.3844 160.172 42.9344 159.5 42.3794 159.5C41.8244 159.5 41.3745 160.172 41.3745 161C41.3745 161.828 41.8244 162.5 42.3794 162.5Z" fill="url(#paint24_linear_334_14001)"/>
<path d="M42.3794 186.5C42.9344 186.5 43.3844 185.828 43.3844 185C43.3844 184.172 42.9344 183.5 42.3794 183.5C41.8244 183.5 41.3745 184.172 41.3745 185C41.3745 185.828 41.8244 186.5 42.3794 186.5Z" fill="url(#paint25_linear_334_14001)"/>
<path d="M42.3794 210.5C42.9344 210.5 43.3844 209.828 43.3844 209C43.3844 208.172 42.9344 207.5 42.3794 207.5C41.8244 207.5 41.3745 208.172 41.3745 209C41.3745 209.828 41.8244 210.5 42.3794 210.5Z" fill="url(#paint26_linear_334_14001)"/>
<path d="M58.4581 18.5C59.0131 18.5 59.463 17.8284 59.463 17C59.463 16.1716 59.0131 15.5 58.4581 15.5C57.903 15.5 57.4531 16.1716 57.4531 17C57.4531 17.8284 57.903 18.5 58.4581 18.5Z" fill="url(#paint27_linear_334_14001)"/>
<path d="M58.4581 42.5C59.0131 42.5 59.463 41.8284 59.463 41C59.463 40.1716 59.0131 39.5 58.4581 39.5C57.903 39.5 57.4531 40.1716 57.4531 41C57.4531 41.8284 57.903 42.5 58.4581 42.5Z" fill="url(#paint28_linear_334_14001)"/>
<path d="M58.4581 66.5C59.0131 66.5 59.463 65.8284 59.463 65C59.463 64.1716 59.0131 63.5 58.4581 63.5C57.903 63.5 57.4531 64.1716 57.4531 65C57.4531 65.8284 57.903 66.5 58.4581 66.5Z" fill="url(#paint29_linear_334_14001)"/>
<path d="M58.4581 90.5C59.0131 90.5 59.463 89.8284 59.463 89C59.463 88.1716 59.0131 87.5 58.4581 87.5C57.903 87.5 57.4531 88.1716 57.4531 89C57.4531 89.8284 57.903 90.5 58.4581 90.5Z" fill="url(#paint30_linear_334_14001)"/>
<path d="M58.4581 114.5C59.0131 114.5 59.463 113.828 59.463 113C59.463 112.172 59.0131 111.5 58.4581 111.5C57.903 111.5 57.4531 112.172 57.4531 113C57.4531 113.828 57.903 114.5 58.4581 114.5Z" fill="url(#paint31_linear_334_14001)"/>
<path d="M58.4581 138.5C59.0131 138.5 59.463 137.828 59.463 137C59.463 136.172 59.0131 135.5 58.4581 135.5C57.903 135.5 57.4531 136.172 57.4531 137C57.4531 137.828 57.903 138.5 58.4581 138.5Z" fill="url(#paint32_linear_334_14001)"/>
<path d="M58.4581 162.5C59.0131 162.5 59.463 161.828 59.463 161C59.463 160.172 59.0131 159.5 58.4581 159.5C57.903 159.5 57.4531 160.172 57.4531 161C57.4531 161.828 57.903 162.5 58.4581 162.5Z" fill="url(#paint33_linear_334_14001)"/>
<path d="M58.4581 186.5C59.0131 186.5 59.463 185.828 59.463 185C59.463 184.172 59.0131 183.5 58.4581 183.5C57.903 183.5 57.4531 184.172 57.4531 185C57.4531 185.828 57.903 186.5 58.4581 186.5Z" fill="url(#paint34_linear_334_14001)"/>
<path d="M58.4581 210.5C59.0131 210.5 59.463 209.828 59.463 209C59.463 208.172 59.0131 207.5 58.4581 207.5C57.903 207.5 57.4531 208.172 57.4531 209C57.4531 209.828 57.903 210.5 58.4581 210.5Z" fill="url(#paint35_linear_334_14001)"/>
<path d="M74.5372 18.5C75.0922 18.5 75.5421 17.8284 75.5421 17C75.5421 16.1716 75.0922 15.5 74.5372 15.5C73.9821 15.5 73.5322 16.1716 73.5322 17C73.5322 17.8284 73.9821 18.5 74.5372 18.5Z" fill="url(#paint36_linear_334_14001)"/>
<path d="M74.5372 42.5C75.0922 42.5 75.5421 41.8284 75.5421 41C75.5421 40.1716 75.0922 39.5 74.5372 39.5C73.9821 39.5 73.5322 40.1716 73.5322 41C73.5322 41.8284 73.9821 42.5 74.5372 42.5Z" fill="url(#paint37_linear_334_14001)"/>
<path d="M74.5372 66.5C75.0922 66.5 75.5421 65.8284 75.5421 65C75.5421 64.1716 75.0922 63.5 74.5372 63.5C73.9821 63.5 73.5322 64.1716 73.5322 65C73.5322 65.8284 73.9821 66.5 74.5372 66.5Z" fill="url(#paint38_linear_334_14001)"/>
<path d="M74.5372 90.5C75.0922 90.5 75.5421 89.8284 75.5421 89C75.5421 88.1716 75.0922 87.5 74.5372 87.5C73.9821 87.5 73.5322 88.1716 73.5322 89C73.5322 89.8284 73.9821 90.5 74.5372 90.5Z" fill="url(#paint39_linear_334_14001)"/>
<path d="M74.5372 114.5C75.0922 114.5 75.5421 113.828 75.5421 113C75.5421 112.172 75.0922 111.5 74.5372 111.5C73.9821 111.5 73.5322 112.172 73.5322 113C73.5322 113.828 73.9821 114.5 74.5372 114.5Z" fill="url(#paint40_linear_334_14001)"/>
<path d="M74.5372 138.5C75.0922 138.5 75.5421 137.828 75.5421 137C75.5421 136.172 75.0922 135.5 74.5372 135.5C73.9821 135.5 73.5322 136.172 73.5322 137C73.5322 137.828 73.9821 138.5 74.5372 138.5Z" fill="url(#paint41_linear_334_14001)"/>
<path d="M74.5372 162.5C75.0922 162.5 75.5421 161.828 75.5421 161C75.5421 160.172 75.0922 159.5 74.5372 159.5C73.9821 159.5 73.5322 160.172 73.5322 161C73.5322 161.828 73.9821 162.5 74.5372 162.5Z" fill="url(#paint42_linear_334_14001)"/>
<path d="M74.5372 186.5C75.0922 186.5 75.5421 185.828 75.5421 185C75.5421 184.172 75.0922 183.5 74.5372 183.5C73.9821 183.5 73.5322 184.172 73.5322 185C73.5322 185.828 73.9821 186.5 74.5372 186.5Z" fill="url(#paint43_linear_334_14001)"/>
<path d="M74.5372 210.5C75.0922 210.5 75.5421 209.828 75.5421 209C75.5421 208.172 75.0922 207.5 74.5372 207.5C73.9821 207.5 73.5322 208.172 73.5322 209C73.5322 209.828 73.9821 210.5 74.5372 210.5Z" fill="url(#paint44_linear_334_14001)"/>
<path d="M90.6158 18.5C91.1708 18.5 91.6207 17.8284 91.6207 17C91.6207 16.1716 91.1708 15.5 90.6158 15.5C90.0608 15.5 89.6108 16.1716 89.6108 17C89.6108 17.8284 90.0608 18.5 90.6158 18.5Z" fill="url(#paint45_linear_334_14001)"/>
<path d="M90.6158 42.5C91.1708 42.5 91.6207 41.8284 91.6207 41C91.6207 40.1716 91.1708 39.5 90.6158 39.5C90.0608 39.5 89.6108 40.1716 89.6108 41C89.6108 41.8284 90.0608 42.5 90.6158 42.5Z" fill="url(#paint46_linear_334_14001)"/>
<path d="M90.6158 66.5C91.1708 66.5 91.6207 65.8284 91.6207 65C91.6207 64.1716 91.1708 63.5 90.6158 63.5C90.0608 63.5 89.6108 64.1716 89.6108 65C89.6108 65.8284 90.0608 66.5 90.6158 66.5Z" fill="url(#paint47_linear_334_14001)"/>
<path d="M90.6158 90.5C91.1708 90.5 91.6207 89.8284 91.6207 89C91.6207 88.1716 91.1708 87.5 90.6158 87.5C90.0608 87.5 89.6108 88.1716 89.6108 89C89.6108 89.8284 90.0608 90.5 90.6158 90.5Z" fill="url(#paint48_linear_334_14001)"/>
<path d="M90.6158 114.5C91.1708 114.5 91.6207 113.828 91.6207 113C91.6207 112.172 91.1708 111.5 90.6158 111.5C90.0608 111.5 89.6108 112.172 89.6108 113C89.6108 113.828 90.0608 114.5 90.6158 114.5Z" fill="url(#paint49_linear_334_14001)"/>
<path d="M90.6158 138.5C91.1708 138.5 91.6207 137.828 91.6207 137C91.6207 136.172 91.1708 135.5 90.6158 135.5C90.0608 135.5 89.6108 136.172 89.6108 137C89.6108 137.828 90.0608 138.5 90.6158 138.5Z" fill="url(#paint50_linear_334_14001)"/>
<path d="M90.6158 162.5C91.1708 162.5 91.6207 161.828 91.6207 161C91.6207 160.172 91.1708 159.5 90.6158 159.5C90.0608 159.5 89.6108 160.172 89.6108 161C89.6108 161.828 90.0608 162.5 90.6158 162.5Z" fill="url(#paint51_linear_334_14001)"/>
<path d="M90.6158 186.5C91.1708 186.5 91.6207 185.828 91.6207 185C91.6207 184.172 91.1708 183.5 90.6158 183.5C90.0608 183.5 89.6108 184.172 89.6108 185C89.6108 185.828 90.0608 186.5 90.6158 186.5Z" fill="url(#paint52_linear_334_14001)"/>
<path d="M90.6158 210.5C91.1708 210.5 91.6207 209.828 91.6207 209C91.6207 208.172 91.1708 207.5 90.6158 207.5C90.0608 207.5 89.6108 208.172 89.6108 209C89.6108 209.828 90.0608 210.5 90.6158 210.5Z" fill="url(#paint53_linear_334_14001)"/>
<path d="M106.694 18.5C107.249 18.5 107.699 17.8284 107.699 17C107.699 16.1716 107.249 15.5 106.694 15.5C106.139 15.5 105.689 16.1716 105.689 17C105.689 17.8284 106.139 18.5 106.694 18.5Z" fill="url(#paint54_linear_334_14001)"/>
<path d="M106.694 42.5C107.249 42.5 107.699 41.8284 107.699 41C107.699 40.1716 107.249 39.5 106.694 39.5C106.139 39.5 105.689 40.1716 105.689 41C105.689 41.8284 106.139 42.5 106.694 42.5Z" fill="url(#paint55_linear_334_14001)"/>
<path d="M106.694 66.5C107.249 66.5 107.699 65.8284 107.699 65C107.699 64.1716 107.249 63.5 106.694 63.5C106.139 63.5 105.689 64.1716 105.689 65C105.689 65.8284 106.139 66.5 106.694 66.5Z" fill="url(#paint56_linear_334_14001)"/>
<path d="M106.694 90.5C107.249 90.5 107.699 89.8284 107.699 89C107.699 88.1716 107.249 87.5 106.694 87.5C106.139 87.5 105.689 88.1716 105.689 89C105.689 89.8284 106.139 90.5 106.694 90.5Z" fill="url(#paint57_linear_334_14001)"/>
<path d="M106.694 114.5C107.249 114.5 107.699 113.828 107.699 113C107.699 112.172 107.249 111.5 106.694 111.5C106.139 111.5 105.689 112.172 105.689 113C105.689 113.828 106.139 114.5 106.694 114.5Z" fill="url(#paint58_linear_334_14001)"/>
<path d="M106.694 138.5C107.249 138.5 107.699 137.828 107.699 137C107.699 136.172 107.249 135.5 106.694 135.5C106.139 135.5 105.689 136.172 105.689 137C105.689 137.828 106.139 138.5 106.694 138.5Z" fill="url(#paint59_linear_334_14001)"/>
<path d="M106.694 162.5C107.249 162.5 107.699 161.828 107.699 161C107.699 160.172 107.249 159.5 106.694 159.5C106.139 159.5 105.689 160.172 105.689 161C105.689 161.828 106.139 162.5 106.694 162.5Z" fill="url(#paint60_linear_334_14001)"/>
<path d="M106.694 186.5C107.249 186.5 107.699 185.828 107.699 185C107.699 184.172 107.249 183.5 106.694 183.5C106.139 183.5 105.689 184.172 105.689 185C105.689 185.828 106.139 186.5 106.694 186.5Z" fill="url(#paint61_linear_334_14001)"/>
<path d="M106.694 210.5C107.249 210.5 107.699 209.828 107.699 209C107.699 208.172 107.249 207.5 106.694 207.5C106.139 207.5 105.689 208.172 105.689 209C105.689 209.828 106.139 210.5 106.694 210.5Z" fill="url(#paint62_linear_334_14001)"/>
<path d="M122.773 18.5C123.328 18.5 123.778 17.8284 123.778 17C123.778 16.1716 123.328 15.5 122.773 15.5C122.218 15.5 121.769 16.1716 121.769 17C121.769 17.8284 122.218 18.5 122.773 18.5Z" fill="url(#paint63_linear_334_14001)"/>
<path d="M122.773 42.5C123.328 42.5 123.778 41.8284 123.778 41C123.778 40.1716 123.328 39.5 122.773 39.5C122.218 39.5 121.769 40.1716 121.769 41C121.769 41.8284 122.218 42.5 122.773 42.5Z" fill="url(#paint64_linear_334_14001)"/>
<path d="M122.773 66.5C123.328 66.5 123.778 65.8284 123.778 65C123.778 64.1716 123.328 63.5 122.773 63.5C122.218 63.5 121.769 64.1716 121.769 65C121.769 65.8284 122.218 66.5 122.773 66.5Z" fill="url(#paint65_linear_334_14001)"/>
<path d="M122.773 90.5C123.328 90.5 123.778 89.8284 123.778 89C123.778 88.1716 123.328 87.5 122.773 87.5C122.218 87.5 121.769 88.1716 121.769 89C121.769 89.8284 122.218 90.5 122.773 90.5Z" fill="url(#paint66_linear_334_14001)"/>
<path d="M122.773 114.5C123.328 114.5 123.778 113.828 123.778 113C123.778 112.172 123.328 111.5 122.773 111.5C122.218 111.5 121.769 112.172 121.769 113C121.769 113.828 122.218 114.5 122.773 114.5Z" fill="url(#paint67_linear_334_14001)"/>
<path d="M122.773 138.5C123.328 138.5 123.778 137.828 123.778 137C123.778 136.172 123.328 135.5 122.773 135.5C122.218 135.5 121.769 136.172 121.769 137C121.769 137.828 122.218 138.5 122.773 138.5Z" fill="url(#paint68_linear_334_14001)"/>
<path d="M122.773 162.5C123.328 162.5 123.778 161.828 123.778 161C123.778 160.172 123.328 159.5 122.773 159.5C122.218 159.5 121.769 160.172 121.769 161C121.769 161.828 122.218 162.5 122.773 162.5Z" fill="url(#paint69_linear_334_14001)"/>
<path d="M122.773 186.5C123.328 186.5 123.778 185.828 123.778 185C123.778 184.172 123.328 183.5 122.773 183.5C122.218 183.5 121.769 184.172 121.769 185C121.769 185.828 122.218 186.5 122.773 186.5Z" fill="url(#paint70_linear_334_14001)"/>
<path d="M122.773 210.5C123.328 210.5 123.778 209.828 123.778 209C123.778 208.172 123.328 207.5 122.773 207.5C122.218 207.5 121.769 208.172 121.769 209C121.769 209.828 122.218 210.5 122.773 210.5Z" fill="url(#paint71_linear_334_14001)"/>
<path d="M138.853 18.5C139.408 18.5 139.858 17.8284 139.858 17C139.858 16.1716 139.408 15.5 138.853 15.5C138.298 15.5 137.848 16.1716 137.848 17C137.848 17.8284 138.298 18.5 138.853 18.5Z" fill="url(#paint72_linear_334_14001)"/>
<path d="M138.853 42.5C139.408 42.5 139.858 41.8284 139.858 41C139.858 40.1716 139.408 39.5 138.853 39.5C138.298 39.5 137.848 40.1716 137.848 41C137.848 41.8284 138.298 42.5 138.853 42.5Z" fill="url(#paint73_linear_334_14001)"/>
<path d="M138.853 66.5C139.408 66.5 139.858 65.8284 139.858 65C139.858 64.1716 139.408 63.5 138.853 63.5C138.298 63.5 137.848 64.1716 137.848 65C137.848 65.8284 138.298 66.5 138.853 66.5Z" fill="url(#paint74_linear_334_14001)"/>
<path d="M138.853 90.5C139.408 90.5 139.858 89.8284 139.858 89C139.858 88.1716 139.408 87.5 138.853 87.5C138.298 87.5 137.848 88.1716 137.848 89C137.848 89.8284 138.298 90.5 138.853 90.5Z" fill="url(#paint75_linear_334_14001)"/>
<path d="M138.853 114.5C139.408 114.5 139.858 113.828 139.858 113C139.858 112.172 139.408 111.5 138.853 111.5C138.298 111.5 137.848 112.172 137.848 113C137.848 113.828 138.298 114.5 138.853 114.5Z" fill="url(#paint76_linear_334_14001)"/>
<path d="M138.853 138.5C139.408 138.5 139.858 137.828 139.858 137C139.858 136.172 139.408 135.5 138.853 135.5C138.298 135.5 137.848 136.172 137.848 137C137.848 137.828 138.298 138.5 138.853 138.5Z" fill="url(#paint77_linear_334_14001)"/>
<path d="M138.853 162.5C139.408 162.5 139.858 161.828 139.858 161C139.858 160.172 139.408 159.5 138.853 159.5C138.298 159.5 137.848 160.172 137.848 161C137.848 161.828 138.298 162.5 138.853 162.5Z" fill="url(#paint78_linear_334_14001)"/>
<path d="M138.853 186.5C139.408 186.5 139.858 185.828 139.858 185C139.858 184.172 139.408 183.5 138.853 183.5C138.298 183.5 137.848 184.172 137.848 185C137.848 185.828 138.298 186.5 138.853 186.5Z" fill="url(#paint79_linear_334_14001)"/>
<path d="M138.853 210.5C139.408 210.5 139.858 209.828 139.858 209C139.858 208.172 139.408 207.5 138.853 207.5C138.298 207.5 137.848 208.172 137.848 209C137.848 209.828 138.298 210.5 138.853 210.5Z" fill="url(#paint80_linear_334_14001)"/>
<path d="M154.931 18.5C155.486 18.5 155.936 17.8284 155.936 17C155.936 16.1716 155.486 15.5 154.931 15.5C154.376 15.5 153.926 16.1716 153.926 17C153.926 17.8284 154.376 18.5 154.931 18.5Z" fill="url(#paint81_linear_334_14001)"/>
<path d="M154.931 42.5C155.486 42.5 155.936 41.8284 155.936 41C155.936 40.1716 155.486 39.5 154.931 39.5C154.376 39.5 153.926 40.1716 153.926 41C153.926 41.8284 154.376 42.5 154.931 42.5Z" fill="url(#paint82_linear_334_14001)"/>
<path d="M154.931 66.5C155.486 66.5 155.936 65.8284 155.936 65C155.936 64.1716 155.486 63.5 154.931 63.5C154.376 63.5 153.926 64.1716 153.926 65C153.926 65.8284 154.376 66.5 154.931 66.5Z" fill="url(#paint83_linear_334_14001)"/>
<path d="M154.931 90.5C155.486 90.5 155.936 89.8284 155.936 89C155.936 88.1716 155.486 87.5 154.931 87.5C154.376 87.5 153.926 88.1716 153.926 89C153.926 89.8284 154.376 90.5 154.931 90.5Z" fill="url(#paint84_linear_334_14001)"/>
<path d="M154.931 114.5C155.486 114.5 155.936 113.828 155.936 113C155.936 112.172 155.486 111.5 154.931 111.5C154.376 111.5 153.926 112.172 153.926 113C153.926 113.828 154.376 114.5 154.931 114.5Z" fill="url(#paint85_linear_334_14001)"/>
<path d="M154.931 138.5C155.486 138.5 155.936 137.828 155.936 137C155.936 136.172 155.486 135.5 154.931 135.5C154.376 135.5 153.926 136.172 153.926 137C153.926 137.828 154.376 138.5 154.931 138.5Z" fill="url(#paint86_linear_334_14001)"/>
<path d="M154.931 162.5C155.486 162.5 155.936 161.828 155.936 161C155.936 160.172 155.486 159.5 154.931 159.5C154.376 159.5 153.926 160.172 153.926 161C153.926 161.828 154.376 162.5 154.931 162.5Z" fill="url(#paint87_linear_334_14001)"/>
<path d="M154.931 186.5C155.486 186.5 155.936 185.828 155.936 185C155.936 184.172 155.486 183.5 154.931 183.5C154.376 183.5 153.926 184.172 153.926 185C153.926 185.828 154.376 186.5 154.931 186.5Z" fill="url(#paint88_linear_334_14001)"/>
<path d="M154.931 210.5C155.486 210.5 155.936 209.828 155.936 209C155.936 208.172 155.486 207.5 154.931 207.5C154.376 207.5 153.926 208.172 153.926 209C153.926 209.828 154.376 210.5 154.931 210.5Z" fill="url(#paint89_linear_334_14001)"/>
<path d="M171.01 18.5C171.565 18.5 172.015 17.8284 172.015 17C172.015 16.1716 171.565 15.5 171.01 15.5C170.455 15.5 170.005 16.1716 170.005 17C170.005 17.8284 170.455 18.5 171.01 18.5Z" fill="url(#paint90_linear_334_14001)"/>
<path d="M171.01 42.5C171.565 42.5 172.015 41.8284 172.015 41C172.015 40.1716 171.565 39.5 171.01 39.5C170.455 39.5 170.005 40.1716 170.005 41C170.005 41.8284 170.455 42.5 171.01 42.5Z" fill="url(#paint91_linear_334_14001)"/>
<path d="M171.01 66.5C171.565 66.5 172.015 65.8284 172.015 65C172.015 64.1716 171.565 63.5 171.01 63.5C170.455 63.5 170.005 64.1716 170.005 65C170.005 65.8284 170.455 66.5 171.01 66.5Z" fill="url(#paint92_linear_334_14001)"/>
<path d="M171.01 90.5C171.565 90.5 172.015 89.8284 172.015 89C172.015 88.1716 171.565 87.5 171.01 87.5C170.455 87.5 170.005 88.1716 170.005 89C170.005 89.8284 170.455 90.5 171.01 90.5Z" fill="url(#paint93_linear_334_14001)"/>
<path d="M171.01 114.5C171.565 114.5 172.015 113.828 172.015 113C172.015 112.172 171.565 111.5 171.01 111.5C170.455 111.5 170.005 112.172 170.005 113C170.005 113.828 170.455 114.5 171.01 114.5Z" fill="url(#paint94_linear_334_14001)"/>
<path d="M171.01 138.5C171.565 138.5 172.015 137.828 172.015 137C172.015 136.172 171.565 135.5 171.01 135.5C170.455 135.5 170.005 136.172 170.005 137C170.005 137.828 170.455 138.5 171.01 138.5Z" fill="url(#paint95_linear_334_14001)"/>
<path d="M171.01 162.5C171.565 162.5 172.015 161.828 172.015 161C172.015 160.172 171.565 159.5 171.01 159.5C170.455 159.5 170.005 160.172 170.005 161C170.005 161.828 170.455 162.5 171.01 162.5Z" fill="url(#paint96_linear_334_14001)"/>
<path d="M171.01 186.5C171.565 186.5 172.015 185.828 172.015 185C172.015 184.172 171.565 183.5 171.01 183.5C170.455 183.5 170.005 184.172 170.005 185C170.005 185.828 170.455 186.5 171.01 186.5Z" fill="url(#paint97_linear_334_14001)"/>
<path d="M171.01 210.5C171.565 210.5 172.015 209.828 172.015 209C172.015 208.172 171.565 207.5 171.01 207.5C170.455 207.5 170.005 208.172 170.005 209C170.005 209.828 170.455 210.5 171.01 210.5Z" fill="url(#paint98_linear_334_14001)"/>
<path d="M187.089 18.5C187.644 18.5 188.094 17.8284 188.094 17C188.094 16.1716 187.644 15.5 187.089 15.5C186.534 15.5 186.084 16.1716 186.084 17C186.084 17.8284 186.534 18.5 187.089 18.5Z" fill="url(#paint99_linear_334_14001)"/>
<path d="M187.089 42.5C187.644 42.5 188.094 41.8284 188.094 41C188.094 40.1716 187.644 39.5 187.089 39.5C186.534 39.5 186.084 40.1716 186.084 41C186.084 41.8284 186.534 42.5 187.089 42.5Z" fill="url(#paint100_linear_334_14001)"/>
<path d="M187.089 66.5C187.644 66.5 188.094 65.8284 188.094 65C188.094 64.1716 187.644 63.5 187.089 63.5C186.534 63.5 186.084 64.1716 186.084 65C186.084 65.8284 186.534 66.5 187.089 66.5Z" fill="url(#paint101_linear_334_14001)"/>
<path d="M187.089 90.5C187.644 90.5 188.094 89.8284 188.094 89C188.094 88.1716 187.644 87.5 187.089 87.5C186.534 87.5 186.084 88.1716 186.084 89C186.084 89.8284 186.534 90.5 187.089 90.5Z" fill="url(#paint102_linear_334_14001)"/>
<path d="M187.089 114.5C187.644 114.5 188.094 113.828 188.094 113C188.094 112.172 187.644 111.5 187.089 111.5C186.534 111.5 186.084 112.172 186.084 113C186.084 113.828 186.534 114.5 187.089 114.5Z" fill="url(#paint103_linear_334_14001)"/>
<path d="M187.089 138.5C187.644 138.5 188.094 137.828 188.094 137C188.094 136.172 187.644 135.5 187.089 135.5C186.534 135.5 186.084 136.172 186.084 137C186.084 137.828 186.534 138.5 187.089 138.5Z" fill="url(#paint104_linear_334_14001)"/>
<path d="M187.089 162.5C187.644 162.5 188.094 161.828 188.094 161C188.094 160.172 187.644 159.5 187.089 159.5C186.534 159.5 186.084 160.172 186.084 161C186.084 161.828 186.534 162.5 187.089 162.5Z" fill="url(#paint105_linear_334_14001)"/>
<path d="M187.089 186.5C187.644 186.5 188.094 185.828 188.094 185C188.094 184.172 187.644 183.5 187.089 183.5C186.534 183.5 186.084 184.172 186.084 185C186.084 185.828 186.534 186.5 187.089 186.5Z" fill="url(#paint106_linear_334_14001)"/>
<path d="M187.089 210.5C187.644 210.5 188.094 209.828 188.094 209C188.094 208.172 187.644 207.5 187.089 207.5C186.534 207.5 186.084 208.172 186.084 209C186.084 209.828 186.534 210.5 187.089 210.5Z" fill="url(#paint107_linear_334_14001)"/>
<path d="M203.167 18.5C203.722 18.5 204.172 17.8284 204.172 17C204.172 16.1716 203.722 15.5 203.167 15.5C202.612 15.5 202.162 16.1716 202.162 17C202.162 17.8284 202.612 18.5 203.167 18.5Z" fill="url(#paint108_linear_334_14001)"/>
<path d="M203.167 42.5C203.722 42.5 204.172 41.8284 204.172 41C204.172 40.1716 203.722 39.5 203.167 39.5C202.612 39.5 202.162 40.1716 202.162 41C202.162 41.8284 202.612 42.5 203.167 42.5Z" fill="url(#paint109_linear_334_14001)"/>
<path d="M203.167 66.5C203.722 66.5 204.172 65.8284 204.172 65C204.172 64.1716 203.722 63.5 203.167 63.5C202.612 63.5 202.162 64.1716 202.162 65C202.162 65.8284 202.612 66.5 203.167 66.5Z" fill="url(#paint110_linear_334_14001)"/>
<path d="M203.167 90.5C203.722 90.5 204.172 89.8284 204.172 89C204.172 88.1716 203.722 87.5 203.167 87.5C202.612 87.5 202.162 88.1716 202.162 89C202.162 89.8284 202.612 90.5 203.167 90.5Z" fill="url(#paint111_linear_334_14001)"/>
<path d="M203.167 114.5C203.722 114.5 204.172 113.828 204.172 113C204.172 112.172 203.722 111.5 203.167 111.5C202.612 111.5 202.162 112.172 202.162 113C202.162 113.828 202.612 114.5 203.167 114.5Z" fill="url(#paint112_linear_334_14001)"/>
<path d="M203.167 138.5C203.722 138.5 204.172 137.828 204.172 137C204.172 136.172 203.722 135.5 203.167 135.5C202.612 135.5 202.162 136.172 202.162 137C202.162 137.828 202.612 138.5 203.167 138.5Z" fill="url(#paint113_linear_334_14001)"/>
<path d="M203.167 162.5C203.722 162.5 204.172 161.828 204.172 161C204.172 160.172 203.722 159.5 203.167 159.5C202.612 159.5 202.162 160.172 202.162 161C202.162 161.828 202.612 162.5 203.167 162.5Z" fill="url(#paint114_linear_334_14001)"/>
<path d="M203.167 186.5C203.722 186.5 204.172 185.828 204.172 185C204.172 184.172 203.722 183.5 203.167 183.5C202.612 183.5 202.162 184.172 202.162 185C202.162 185.828 202.612 186.5 203.167 186.5Z" fill="url(#paint115_linear_334_14001)"/>
<path d="M203.167 210.5C203.722 210.5 204.172 209.828 204.172 209C204.172 208.172 203.722 207.5 203.167 207.5C202.612 207.5 202.162 208.172 202.162 209C202.162 209.828 202.612 210.5 203.167 210.5Z" fill="url(#paint116_linear_334_14001)"/>
</g>
</g>
<defs>
<linearGradient id="paint0_linear_334_14001" x1="10.3501" y1="15.5" x2="8.64664" y2="18.3581" gradientUnits="userSpaceOnUse">
<stop stop-color="#8CEB9A"/>
<stop offset="1" stop-color="#35793F"/>
</linearGradient>
<linearGradient id="paint1_linear_334_14001" x1="10.3501" y1="39.5" x2="8.64664" y2="42.3581" gradientUnits="userSpaceOnUse">
<stop stop-color="#8CEB9A"/>
<stop offset="1" stop-color="#35793F"/>
</linearGradient>
<linearGradient id="paint2_linear_334_14001" x1="10.3501" y1="63.5" x2="8.64664" y2="66.3581" gradientUnits="userSpaceOnUse">
<stop stop-color="#8CEB9A"/>
<stop offset="1" stop-color="#35793F"/>
</linearGradient>
<linearGradient id="paint3_linear_334_14001" x1="10.3501" y1="87.5" x2="8.64664" y2="90.3581" gradientUnits="userSpaceOnUse">
<stop stop-color="#8CEB9A"/>
<stop offset="1" stop-color="#35793F"/>
</linearGradient>
<linearGradient id="paint4_linear_334_14001" x1="10.3501" y1="111.5" x2="8.64664" y2="114.358" gradientUnits="userSpaceOnUse">
<stop stop-color="#8CEB9A"/>
<stop offset="1" stop-color="#35793F"/>
</linearGradient>
<linearGradient id="paint5_linear_334_14001" x1="10.3501" y1="135.5" x2="8.64664" y2="138.358" gradientUnits="userSpaceOnUse">
<stop stop-color="#8CEB9A"/>
<stop offset="1" stop-color="#35793F"/>
</linearGradient>
<linearGradient id="paint6_linear_334_14001" x1="10.3501" y1="159.5" x2="8.64664" y2="162.358" gradientUnits="userSpaceOnUse">
<stop stop-color="#8CEB9A"/>
<stop offset="1" stop-color="#35793F"/>
</linearGradient>
<linearGradient id="paint7_linear_334_14001" x1="10.3501" y1="183.5" x2="8.64664" y2="186.358" gradientUnits="userSpaceOnUse">
<stop stop-color="#8CEB9A"/>
<stop offset="1" stop-color="#35793F"/>
</linearGradient>
<linearGradient id="paint8_linear_334_14001" x1="10.3501" y1="207.5" x2="8.64664" y2="210.358" gradientUnits="userSpaceOnUse">
<stop stop-color="#8CEB9A"/>
<stop offset="1" stop-color="#35793F"/>
</linearGradient>
<linearGradient id="paint9_linear_334_14001" x1="26.4287" y1="15.5" x2="24.7253" y2="18.3581" gradientUnits="userSpaceOnUse">
<stop stop-color="#8CEB9A"/>
<stop offset="1" stop-color="#35793F"/>
</linearGradient>
<linearGradient id="paint10_linear_334_14001" x1="26.4287" y1="39.5" x2="24.7253" y2="42.3581" gradientUnits="userSpaceOnUse">
<stop stop-color="#8CEB9A"/>
<stop offset="1" stop-color="#35793F"/>
</linearGradient>
<linearGradient id="paint11_linear_334_14001" x1="26.4287" y1="63.5" x2="24.7253" y2="66.3581" gradientUnits="userSpaceOnUse">
<stop stop-color="#8CEB9A"/>
<stop offset="1" stop-color="#35793F"/>
</linearGradient>
<linearGradient id="paint12_linear_334_14001" x1="26.4287" y1="87.5" x2="24.7253" y2="90.3581" gradientUnits="userSpaceOnUse">
<stop stop-color="#8CEB9A"/>
<stop offset="1" stop-color="#35793F"/>
</linearGradient>
<linearGradient id="paint13_linear_334_14001" x1="26.4287" y1="111.5" x2="24.7253" y2="114.358" gradientUnits="userSpaceOnUse">
<stop stop-color="#8CEB9A"/>
<stop offset="1" stop-color="#35793F"/>
</linearGradient>
<linearGradient id="paint14_linear_334_14001" x1="26.4287" y1="135.5" x2="24.7253" y2="138.358" gradientUnits="userSpaceOnUse">
<stop stop-color="#8CEB9A"/>
<stop offset="1" stop-color="#35793F"/>
</linearGradient>
<linearGradient id="paint15_linear_334_14001" x1="26.4287" y1="159.5" x2="24.7253" y2="162.358" gradientUnits="userSpaceOnUse">
<stop stop-color="#8CEB9A"/>
<stop offset="1" stop-color="#35793F"/>
</linearGradient>
<linearGradient id="paint16_linear_334_14001" x1="26.4287" y1="183.5" x2="24.7253" y2="186.358" gradientUnits="userSpaceOnUse">
<stop stop-color="#8CEB9A"/>
<stop offset="1" stop-color="#35793F"/>
</linearGradient>
<linearGradient id="paint17_linear_334_14001" x1="26.4287" y1="207.5" x2="24.7253" y2="210.358" gradientUnits="userSpaceOnUse">
<stop stop-color="#8CEB9A"/>
<stop offset="1" stop-color="#35793F"/>
</linearGradient>
<linearGradient id="paint18_linear_334_14001" x1="42.5078" y1="15.5" x2="40.8044" y2="18.3581" gradientUnits="userSpaceOnUse">
<stop stop-color="#8CEB9A"/>
<stop offset="1" stop-color="#35793F"/>
</linearGradient>
<linearGradient id="paint19_linear_334_14001" x1="42.5078" y1="39.5" x2="40.8044" y2="42.3581" gradientUnits="userSpaceOnUse">
<stop stop-color="#8CEB9A"/>
<stop offset="1" stop-color="#35793F"/>
</linearGradient>
<linearGradient id="paint20_linear_334_14001" x1="42.5078" y1="63.5" x2="40.8044" y2="66.3581" gradientUnits="userSpaceOnUse">
<stop stop-color="#8CEB9A"/>
<stop offset="1" stop-color="#35793F"/>
</linearGradient>
<linearGradient id="paint21_linear_334_14001" x1="42.5078" y1="87.5" x2="40.8044" y2="90.3581" gradientUnits="userSpaceOnUse">
<stop stop-color="#8CEB9A"/>
<stop offset="1" stop-color="#35793F"/>
</linearGradient>
<linearGradient id="paint22_linear_334_14001" x1="42.5078" y1="111.5" x2="40.8044" y2="114.358" gradientUnits="userSpaceOnUse">
<stop stop-color="#8CEB9A"/>
<stop offset="1" stop-color="#35793F"/>
</linearGradient>
<linearGradient id="paint23_linear_334_14001" x1="42.5078" y1="135.5" x2="40.8044" y2="138.358" gradientUnits="userSpaceOnUse">
<stop stop-color="#8CEB9A"/>
<stop offset="1" stop-color="#35793F"/>
</linearGradient>
<linearGradient id="paint24_linear_334_14001" x1="42.5078" y1="159.5" x2="40.8044" y2="162.358" gradientUnits="userSpaceOnUse">
<stop stop-color="#8CEB9A"/>
<stop offset="1" stop-color="#35793F"/>
</linearGradient>
<linearGradient id="paint25_linear_334_14001" x1="42.5078" y1="183.5" x2="40.8044" y2="186.358" gradientUnits="userSpaceOnUse">
<stop stop-color="#8CEB9A"/>
<stop offset="1" stop-color="#35793F"/>
</linearGradient>
<linearGradient id="paint26_linear_334_14001" x1="42.5078" y1="207.5" x2="40.8044" y2="210.358" gradientUnits="userSpaceOnUse">
<stop stop-color="#8CEB9A"/>
<stop offset="1" stop-color="#35793F"/>
</linearGradient>
<linearGradient id="paint27_linear_334_14001" x1="58.5865" y1="15.5" x2="56.883" y2="18.3581" gradientUnits="userSpaceOnUse">
<stop stop-color="#8CEB9A"/>
<stop offset="1" stop-color="#35793F"/>
</linearGradient>
<linearGradient id="paint28_linear_334_14001" x1="58.5865" y1="39.5" x2="56.883" y2="42.3581" gradientUnits="userSpaceOnUse">
<stop stop-color="#8CEB9A"/>
<stop offset="1" stop-color="#35793F"/>
</linearGradient>
<linearGradient id="paint29_linear_334_14001" x1="58.5865" y1="63.5" x2="56.883" y2="66.3581" gradientUnits="userSpaceOnUse">
<stop stop-color="#8CEB9A"/>
<stop offset="1" stop-color="#35793F"/>
</linearGradient>
<linearGradient id="paint30_linear_334_14001" x1="58.5865" y1="87.5" x2="56.883" y2="90.3581" gradientUnits="userSpaceOnUse">
<stop stop-color="#8CEB9A"/>
<stop offset="1" stop-color="#35793F"/>
</linearGradient>
<linearGradient id="paint31_linear_334_14001" x1="58.5865" y1="111.5" x2="56.883" y2="114.358" gradientUnits="userSpaceOnUse">
<stop stop-color="#8CEB9A"/>
<stop offset="1" stop-color="#35793F"/>
</linearGradient>
<linearGradient id="paint32_linear_334_14001" x1="58.5865" y1="135.5" x2="56.883" y2="138.358" gradientUnits="userSpaceOnUse">
<stop stop-color="#8CEB9A"/>
<stop offset="1" stop-color="#35793F"/>
</linearGradient>
<linearGradient id="paint33_linear_334_14001" x1="58.5865" y1="159.5" x2="56.883" y2="162.358" gradientUnits="userSpaceOnUse">
<stop stop-color="#8CEB9A"/>
<stop offset="1" stop-color="#35793F"/>
</linearGradient>
<linearGradient id="paint34_linear_334_14001" x1="58.5865" y1="183.5" x2="56.883" y2="186.358" gradientUnits="userSpaceOnUse">
<stop stop-color="#8CEB9A"/>
<stop offset="1" stop-color="#35793F"/>
</linearGradient>
<linearGradient id="paint35_linear_334_14001" x1="58.5865" y1="207.5" x2="56.883" y2="210.358" gradientUnits="userSpaceOnUse">
<stop stop-color="#8CEB9A"/>
<stop offset="1" stop-color="#35793F"/>
</linearGradient>
<linearGradient id="paint36_linear_334_14001" x1="74.6656" y1="15.5" x2="72.9621" y2="18.3581" gradientUnits="userSpaceOnUse">
<stop stop-color="#8CEB9A"/>
<stop offset="1" stop-color="#35793F"/>
</linearGradient>
<linearGradient id="paint37_linear_334_14001" x1="74.6656" y1="39.5" x2="72.9621" y2="42.3581" gradientUnits="userSpaceOnUse">
<stop stop-color="#8CEB9A"/>
<stop offset="1" stop-color="#35793F"/>
</linearGradient>
<linearGradient id="paint38_linear_334_14001" x1="74.6656" y1="63.5" x2="72.9621" y2="66.3581" gradientUnits="userSpaceOnUse">
<stop stop-color="#8CEB9A"/>
<stop offset="1" stop-color="#35793F"/>
</linearGradient>
<linearGradient id="paint39_linear_334_14001" x1="74.6656" y1="87.5" x2="72.9621" y2="90.3581" gradientUnits="userSpaceOnUse">
<stop stop-color="#8CEB9A"/>
<stop offset="1" stop-color="#35793F"/>
</linearGradient>
<linearGradient id="paint40_linear_334_14001" x1="74.6656" y1="111.5" x2="72.9621" y2="114.358" gradientUnits="userSpaceOnUse">
<stop stop-color="#8CEB9A"/>
<stop offset="1" stop-color="#35793F"/>
</linearGradient>
<linearGradient id="paint41_linear_334_14001" x1="74.6656" y1="135.5" x2="72.9621" y2="138.358" gradientUnits="userSpaceOnUse">
<stop stop-color="#8CEB9A"/>
<stop offset="1" stop-color="#35793F"/>
</linearGradient>
<linearGradient id="paint42_linear_334_14001" x1="74.6656" y1="159.5" x2="72.9621" y2="162.358" gradientUnits="userSpaceOnUse">
<stop stop-color="#8CEB9A"/>
<stop offset="1" stop-color="#35793F"/>
</linearGradient>
<linearGradient id="paint43_linear_334_14001" x1="74.6656" y1="183.5" x2="72.9621" y2="186.358" gradientUnits="userSpaceOnUse">
<stop stop-color="#8CEB9A"/>
<stop offset="1" stop-color="#35793F"/>
</linearGradient>
<linearGradient id="paint44_linear_334_14001" x1="74.6656" y1="207.5" x2="72.9621" y2="210.358" gradientUnits="userSpaceOnUse">
<stop stop-color="#8CEB9A"/>
<stop offset="1" stop-color="#35793F"/>
</linearGradient>
<linearGradient id="paint45_linear_334_14001" x1="90.7442" y1="15.5" x2="89.0407" y2="18.3581" gradientUnits="userSpaceOnUse">
<stop stop-color="#8CEB9A"/>
<stop offset="1" stop-color="#35793F"/>
</linearGradient>
<linearGradient id="paint46_linear_334_14001" x1="90.7442" y1="39.5" x2="89.0407" y2="42.3581" gradientUnits="userSpaceOnUse">
<stop stop-color="#8CEB9A"/>
<stop offset="1" stop-color="#35793F"/>
</linearGradient>
<linearGradient id="paint47_linear_334_14001" x1="90.7442" y1="63.5" x2="89.0407" y2="66.3581" gradientUnits="userSpaceOnUse">
<stop stop-color="#8CEB9A"/>
<stop offset="1" stop-color="#35793F"/>
</linearGradient>
<linearGradient id="paint48_linear_334_14001" x1="90.7442" y1="87.5" x2="89.0407" y2="90.3581" gradientUnits="userSpaceOnUse">
<stop stop-color="#8CEB9A"/>
<stop offset="1" stop-color="#35793F"/>
</linearGradient>
<linearGradient id="paint49_linear_334_14001" x1="90.7442" y1="111.5" x2="89.0407" y2="114.358" gradientUnits="userSpaceOnUse">
<stop stop-color="#8CEB9A"/>
<stop offset="1" stop-color="#35793F"/>
</linearGradient>
<linearGradient id="paint50_linear_334_14001" x1="90.7442" y1="135.5" x2="89.0407" y2="138.358" gradientUnits="userSpaceOnUse">
<stop stop-color="#8CEB9A"/>
<stop offset="1" stop-color="#35793F"/>
</linearGradient>
<linearGradient id="paint51_linear_334_14001" x1="90.7442" y1="159.5" x2="89.0407" y2="162.358" gradientUnits="userSpaceOnUse">
<stop stop-color="#8CEB9A"/>
<stop offset="1" stop-color="#35793F"/>
</linearGradient>
<linearGradient id="paint52_linear_334_14001" x1="90.7442" y1="183.5" x2="89.0407" y2="186.358" gradientUnits="userSpaceOnUse">
<stop stop-color="#8CEB9A"/>
<stop offset="1" stop-color="#35793F"/>
</linearGradient>
<linearGradient id="paint53_linear_334_14001" x1="90.7442" y1="207.5" x2="89.0407" y2="210.358" gradientUnits="userSpaceOnUse">
<stop stop-color="#8CEB9A"/>
<stop offset="1" stop-color="#35793F"/>
</linearGradient>
<linearGradient id="paint54_linear_334_14001" x1="106.823" y1="15.5" x2="105.119" y2="18.3581" gradientUnits="userSpaceOnUse">
<stop stop-color="#8CEB9A"/>
<stop offset="1" stop-color="#35793F"/>
</linearGradient>
<linearGradient id="paint55_linear_334_14001" x1="106.823" y1="39.5" x2="105.119" y2="42.3581" gradientUnits="userSpaceOnUse">
<stop stop-color="#8CEB9A"/>
<stop offset="1" stop-color="#35793F"/>
</linearGradient>
<linearGradient id="paint56_linear_334_14001" x1="106.823" y1="63.5" x2="105.119" y2="66.3581" gradientUnits="userSpaceOnUse">
<stop stop-color="#8CEB9A"/>
<stop offset="1" stop-color="#35793F"/>
</linearGradient>
<linearGradient id="paint57_linear_334_14001" x1="106.823" y1="87.5" x2="105.119" y2="90.3581" gradientUnits="userSpaceOnUse">
<stop stop-color="#8CEB9A"/>
<stop offset="1" stop-color="#35793F"/>
</linearGradient>
<linearGradient id="paint58_linear_334_14001" x1="106.823" y1="111.5" x2="105.119" y2="114.358" gradientUnits="userSpaceOnUse">
<stop stop-color="#8CEB9A"/>
<stop offset="1" stop-color="#35793F"/>
</linearGradient>
<linearGradient id="paint59_linear_334_14001" x1="106.823" y1="135.5" x2="105.119" y2="138.358" gradientUnits="userSpaceOnUse">
<stop stop-color="#8CEB9A"/>
<stop offset="1" stop-color="#35793F"/>
</linearGradient>
<linearGradient id="paint60_linear_334_14001" x1="106.823" y1="159.5" x2="105.119" y2="162.358" gradientUnits="userSpaceOnUse">
<stop stop-color="#8CEB9A"/>
<stop offset="1" stop-color="#35793F"/>
</linearGradient>
<linearGradient id="paint61_linear_334_14001" x1="106.823" y1="183.5" x2="105.119" y2="186.358" gradientUnits="userSpaceOnUse">
<stop stop-color="#8CEB9A"/>
<stop offset="1" stop-color="#35793F"/>
</linearGradient>
<linearGradient id="paint62_linear_334_14001" x1="106.823" y1="207.5" x2="105.119" y2="210.358" gradientUnits="userSpaceOnUse">
<stop stop-color="#8CEB9A"/>
<stop offset="1" stop-color="#35793F"/>
</linearGradient>
<linearGradient id="paint63_linear_334_14001" x1="122.902" y1="15.5" x2="121.198" y2="18.3581" gradientUnits="userSpaceOnUse">
<stop stop-color="#8CEB9A"/>
<stop offset="1" stop-color="#35793F"/>
</linearGradient>
<linearGradient id="paint64_linear_334_14001" x1="122.902" y1="39.5" x2="121.198" y2="42.3581" gradientUnits="userSpaceOnUse">
<stop stop-color="#8CEB9A"/>
<stop offset="1" stop-color="#35793F"/>
</linearGradient>
<linearGradient id="paint65_linear_334_14001" x1="122.902" y1="63.5" x2="121.198" y2="66.3581" gradientUnits="userSpaceOnUse">
<stop stop-color="#8CEB9A"/>
<stop offset="1" stop-color="#35793F"/>
</linearGradient>
<linearGradient id="paint66_linear_334_14001" x1="122.902" y1="87.5" x2="121.198" y2="90.3581" gradientUnits="userSpaceOnUse">
<stop stop-color="#8CEB9A"/>
<stop offset="1" stop-color="#35793F"/>
</linearGradient>
<linearGradient id="paint67_linear_334_14001" x1="122.902" y1="111.5" x2="121.198" y2="114.358" gradientUnits="userSpaceOnUse">
<stop stop-color="#8CEB9A"/>
<stop offset="1" stop-color="#35793F"/>
</linearGradient>
<linearGradient id="paint68_linear_334_14001" x1="122.902" y1="135.5" x2="121.198" y2="138.358" gradientUnits="userSpaceOnUse">
<stop stop-color="#8CEB9A"/>
<stop offset="1" stop-color="#35793F"/>
</linearGradient>
<linearGradient id="paint69_linear_334_14001" x1="122.902" y1="159.5" x2="121.198" y2="162.358" gradientUnits="userSpaceOnUse">
<stop stop-color="#8CEB9A"/>
<stop offset="1" stop-color="#35793F"/>
</linearGradient>
<linearGradient id="paint70_linear_334_14001" x1="122.902" y1="183.5" x2="121.198" y2="186.358" gradientUnits="userSpaceOnUse">
<stop stop-color="#8CEB9A"/>
<stop offset="1" stop-color="#35793F"/>
</linearGradient>
<linearGradient id="paint71_linear_334_14001" x1="122.902" y1="207.5" x2="121.198" y2="210.358" gradientUnits="userSpaceOnUse">
<stop stop-color="#8CEB9A"/>
<stop offset="1" stop-color="#35793F"/>
</linearGradient>
<linearGradient id="paint72_linear_334_14001" x1="138.981" y1="15.5" x2="137.278" y2="18.3581" gradientUnits="userSpaceOnUse">
<stop stop-color="#8CEB9A"/>
<stop offset="1" stop-color="#35793F"/>
</linearGradient>
<linearGradient id="paint73_linear_334_14001" x1="138.981" y1="39.5" x2="137.278" y2="42.3581" gradientUnits="userSpaceOnUse">
<stop stop-color="#8CEB9A"/>
<stop offset="1" stop-color="#35793F"/>
</linearGradient>
<linearGradient id="paint74_linear_334_14001" x1="138.981" y1="63.5" x2="137.278" y2="66.3581" gradientUnits="userSpaceOnUse">
<stop stop-color="#8CEB9A"/>
<stop offset="1" stop-color="#35793F"/>
</linearGradient>
<linearGradient id="paint75_linear_334_14001" x1="138.981" y1="87.5" x2="137.278" y2="90.3581" gradientUnits="userSpaceOnUse">
<stop stop-color="#8CEB9A"/>
<stop offset="1" stop-color="#35793F"/>
</linearGradient>
<linearGradient id="paint76_linear_334_14001" x1="138.981" y1="111.5" x2="137.278" y2="114.358" gradientUnits="userSpaceOnUse">
<stop stop-color="#8CEB9A"/>
<stop offset="1" stop-color="#35793F"/>
</linearGradient>
<linearGradient id="paint77_linear_334_14001" x1="138.981" y1="135.5" x2="137.278" y2="138.358" gradientUnits="userSpaceOnUse">
<stop stop-color="#8CEB9A"/>
<stop offset="1" stop-color="#35793F"/>
</linearGradient>
<linearGradient id="paint78_linear_334_14001" x1="138.981" y1="159.5" x2="137.278" y2="162.358" gradientUnits="userSpaceOnUse">
<stop stop-color="#8CEB9A"/>
<stop offset="1" stop-color="#35793F"/>
</linearGradient>
<linearGradient id="paint79_linear_334_14001" x1="138.981" y1="183.5" x2="137.278" y2="186.358" gradientUnits="userSpaceOnUse">
<stop stop-color="#8CEB9A"/>
<stop offset="1" stop-color="#35793F"/>
</linearGradient>
<linearGradient id="paint80_linear_334_14001" x1="138.981" y1="207.5" x2="137.278" y2="210.358" gradientUnits="userSpaceOnUse">
<stop stop-color="#8CEB9A"/>
<stop offset="1" stop-color="#35793F"/>
</linearGradient>
<linearGradient id="paint81_linear_334_14001" x1="155.059" y1="15.5" x2="153.356" y2="18.3581" gradientUnits="userSpaceOnUse">
<stop stop-color="#8CEB9A"/>
<stop offset="1" stop-color="#35793F"/>
</linearGradient>
<linearGradient id="paint82_linear_334_14001" x1="155.059" y1="39.5" x2="153.356" y2="42.3581" gradientUnits="userSpaceOnUse">
<stop stop-color="#8CEB9A"/>
<stop offset="1" stop-color="#35793F"/>
</linearGradient>
<linearGradient id="paint83_linear_334_14001" x1="155.059" y1="63.5" x2="153.356" y2="66.3581" gradientUnits="userSpaceOnUse">
<stop stop-color="#8CEB9A"/>
<stop offset="1" stop-color="#35793F"/>
</linearGradient>
<linearGradient id="paint84_linear_334_14001" x1="155.059" y1="87.5" x2="153.356" y2="90.3581" gradientUnits="userSpaceOnUse">
<stop stop-color="#8CEB9A"/>
<stop offset="1" stop-color="#35793F"/>
</linearGradient>
<linearGradient id="paint85_linear_334_14001" x1="155.059" y1="111.5" x2="153.356" y2="114.358" gradientUnits="userSpaceOnUse">
<stop stop-color="#8CEB9A"/>
<stop offset="1" stop-color="#35793F"/>
</linearGradient>
<linearGradient id="paint86_linear_334_14001" x1="155.059" y1="135.5" x2="153.356" y2="138.358" gradientUnits="userSpaceOnUse">
<stop stop-color="#8CEB9A"/>
<stop offset="1" stop-color="#35793F"/>
</linearGradient>
<linearGradient id="paint87_linear_334_14001" x1="155.059" y1="159.5" x2="153.356" y2="162.358" gradientUnits="userSpaceOnUse">
<stop stop-color="#8CEB9A"/>
<stop offset="1" stop-color="#35793F"/>
</linearGradient>
<linearGradient id="paint88_linear_334_14001" x1="155.059" y1="183.5" x2="153.356" y2="186.358" gradientUnits="userSpaceOnUse">
<stop stop-color="#8CEB9A"/>
<stop offset="1" stop-color="#35793F"/>
</linearGradient>
<linearGradient id="paint89_linear_334_14001" x1="155.059" y1="207.5" x2="153.356" y2="210.358" gradientUnits="userSpaceOnUse">
<stop stop-color="#8CEB9A"/>
<stop offset="1" stop-color="#35793F"/>
</linearGradient>
<linearGradient id="paint90_linear_334_14001" x1="171.138" y1="15.5" x2="169.435" y2="18.3581" gradientUnits="userSpaceOnUse">
<stop stop-color="#8CEB9A"/>
<stop offset="1" stop-color="#35793F"/>
</linearGradient>
<linearGradient id="paint91_linear_334_14001" x1="171.138" y1="39.5" x2="169.435" y2="42.3581" gradientUnits="userSpaceOnUse">
<stop stop-color="#8CEB9A"/>
<stop offset="1" stop-color="#35793F"/>
</linearGradient>
<linearGradient id="paint92_linear_334_14001" x1="171.138" y1="63.5" x2="169.435" y2="66.3581" gradientUnits="userSpaceOnUse">
<stop stop-color="#8CEB9A"/>
<stop offset="1" stop-color="#35793F"/>
</linearGradient>
<linearGradient id="paint93_linear_334_14001" x1="171.138" y1="87.5" x2="169.435" y2="90.3581" gradientUnits="userSpaceOnUse">
<stop stop-color="#8CEB9A"/>
<stop offset="1" stop-color="#35793F"/>
</linearGradient>
<linearGradient id="paint94_linear_334_14001" x1="171.138" y1="111.5" x2="169.435" y2="114.358" gradientUnits="userSpaceOnUse">
<stop stop-color="#8CEB9A"/>
<stop offset="1" stop-color="#35793F"/>
</linearGradient>
<linearGradient id="paint95_linear_334_14001" x1="171.138" y1="135.5" x2="169.435" y2="138.358" gradientUnits="userSpaceOnUse">
<stop stop-color="#8CEB9A"/>
<stop offset="1" stop-color="#35793F"/>
</linearGradient>
<linearGradient id="paint96_linear_334_14001" x1="171.138" y1="159.5" x2="169.435" y2="162.358" gradientUnits="userSpaceOnUse">
<stop stop-color="#8CEB9A"/>
<stop offset="1" stop-color="#35793F"/>
</linearGradient>
<linearGradient id="paint97_linear_334_14001" x1="171.138" y1="183.5" x2="169.435" y2="186.358" gradientUnits="userSpaceOnUse">
<stop stop-color="#8CEB9A"/>
<stop offset="1" stop-color="#35793F"/>
</linearGradient>
<linearGradient id="paint98_linear_334_14001" x1="171.138" y1="207.5" x2="169.435" y2="210.358" gradientUnits="userSpaceOnUse">
<stop stop-color="#8CEB9A"/>
<stop offset="1" stop-color="#35793F"/>
</linearGradient>
<linearGradient id="paint99_linear_334_14001" x1="187.217" y1="15.5" x2="185.514" y2="18.3581" gradientUnits="userSpaceOnUse">
<stop stop-color="#8CEB9A"/>
<stop offset="1" stop-color="#35793F"/>
</linearGradient>
<linearGradient id="paint100_linear_334_14001" x1="187.217" y1="39.5" x2="185.514" y2="42.3581" gradientUnits="userSpaceOnUse">
<stop stop-color="#8CEB9A"/>
<stop offset="1" stop-color="#35793F"/>
</linearGradient>
<linearGradient id="paint101_linear_334_14001" x1="187.217" y1="63.5" x2="185.514" y2="66.3581" gradientUnits="userSpaceOnUse">
<stop stop-color="#8CEB9A"/>
<stop offset="1" stop-color="#35793F"/>
</linearGradient>
<linearGradient id="paint102_linear_334_14001" x1="187.217" y1="87.5" x2="185.514" y2="90.3581" gradientUnits="userSpaceOnUse">
<stop stop-color="#8CEB9A"/>
<stop offset="1" stop-color="#35793F"/>
</linearGradient>
<linearGradient id="paint103_linear_334_14001" x1="187.217" y1="111.5" x2="185.514" y2="114.358" gradientUnits="userSpaceOnUse">
<stop stop-color="#8CEB9A"/>
<stop offset="1" stop-color="#35793F"/>
</linearGradient>
<linearGradient id="paint104_linear_334_14001" x1="187.217" y1="135.5" x2="185.514" y2="138.358" gradientUnits="userSpaceOnUse">
<stop stop-color="#8CEB9A"/>
<stop offset="1" stop-color="#35793F"/>
</linearGradient>
<linearGradient id="paint105_linear_334_14001" x1="187.217" y1="159.5" x2="185.514" y2="162.358" gradientUnits="userSpaceOnUse">
<stop stop-color="#8CEB9A"/>
<stop offset="1" stop-color="#35793F"/>
</linearGradient>
<linearGradient id="paint106_linear_334_14001" x1="187.217" y1="183.5" x2="185.514" y2="186.358" gradientUnits="userSpaceOnUse">
<stop stop-color="#8CEB9A"/>
<stop offset="1" stop-color="#35793F"/>
</linearGradient>
<linearGradient id="paint107_linear_334_14001" x1="187.217" y1="207.5" x2="185.514" y2="210.358" gradientUnits="userSpaceOnUse">
<stop stop-color="#8CEB9A"/>
<stop offset="1" stop-color="#35793F"/>
</linearGradient>
<linearGradient id="paint108_linear_334_14001" x1="203.295" y1="15.5" x2="201.592" y2="18.3581" gradientUnits="userSpaceOnUse">
<stop stop-color="#8CEB9A"/>
<stop offset="1" stop-color="#35793F"/>
</linearGradient>
<linearGradient id="paint109_linear_334_14001" x1="203.295" y1="39.5" x2="201.592" y2="42.3581" gradientUnits="userSpaceOnUse">
<stop stop-color="#8CEB9A"/>
<stop offset="1" stop-color="#35793F"/>
</linearGradient>
<linearGradient id="paint110_linear_334_14001" x1="203.295" y1="63.5" x2="201.592" y2="66.3581" gradientUnits="userSpaceOnUse">
<stop stop-color="#8CEB9A"/>
<stop offset="1" stop-color="#35793F"/>
</linearGradient>
<linearGradient id="paint111_linear_334_14001" x1="203.295" y1="87.5" x2="201.592" y2="90.3581" gradientUnits="userSpaceOnUse">
<stop stop-color="#8CEB9A"/>
<stop offset="1" stop-color="#35793F"/>
</linearGradient>
<linearGradient id="paint112_linear_334_14001" x1="203.295" y1="111.5" x2="201.592" y2="114.358" gradientUnits="userSpaceOnUse">
<stop stop-color="#8CEB9A"/>
<stop offset="1" stop-color="#35793F"/>
</linearGradient>
<linearGradient id="paint113_linear_334_14001" x1="203.295" y1="135.5" x2="201.592" y2="138.358" gradientUnits="userSpaceOnUse">
<stop stop-color="#8CEB9A"/>
<stop offset="1" stop-color="#35793F"/>
</linearGradient>
<linearGradient id="paint114_linear_334_14001" x1="203.295" y1="159.5" x2="201.592" y2="162.358" gradientUnits="userSpaceOnUse">
<stop stop-color="#8CEB9A"/>
<stop offset="1" stop-color="#35793F"/>
</linearGradient>
<linearGradient id="paint115_linear_334_14001" x1="203.295" y1="183.5" x2="201.592" y2="186.358" gradientUnits="userSpaceOnUse">
<stop stop-color="#8CEB9A"/>
<stop offset="1" stop-color="#35793F"/>
</linearGradient>
<linearGradient id="paint116_linear_334_14001" x1="203.295" y1="207.5" x2="201.592" y2="210.358" gradientUnits="userSpaceOnUse">
<stop stop-color="#8CEB9A"/>
<stop offset="1" stop-color="#35793F"/>
</linearGradient>
<clipPath id="clip0_334_14001">
<rect x="-103" y="-22" width="408" height="257" rx="128.5" fill="white"/>
</clipPath>
</defs>
</svg>
