<svg width="1340" height="652" viewBox="0 0 1340 652" fill="none" xmlns="http://www.w3.org/2000/svg">
<path d="M150.5 70.5C168.173 70.5 182.5 56.1731 182.5 38.5V32C182.5 14.3269 196.827 7.28667e-06 214.5 7.28667e-06H569.5L774 0L1308 6.8747e-06C1325.67 7.10222e-06 1340 14.3269 1340 32V620C1340 637.673 1325.67 652 1308 652H32C14.3269 652 0 637.673 0 620V102.5C0 84.8269 14.3269 70.5 32 70.5H150.5Z" fill="#2C2C2C" fill-opacity="0.44"/>
<path d="M214.5 0.5H1308C1325.4 0.5 1339.5 14.603 1339.5 32V620C1339.5 637.397 1325.4 651.5 1308 651.5H32C14.603 651.5 0.5 637.397 0.5 620V102.5C0.500004 85.103 14.603 71 32 71H150.5C168.449 71 183 56.4493 183 38.5V32C183 14.603 197.103 0.5 214.5 0.5Z" stroke="#444444" stroke-opacity="0.5"/>
</svg>
