<svg width="256" height="1146" viewBox="0 0 256 1146" fill="none" xmlns="http://www.w3.org/2000/svg">
<path d="M106.5 50.5C117.546 50.5 126.5 41.5457 126.5 30.5V20C126.5 8.95431 135.454 6.52467e-06 146.5 7.19335e-07L147.869 0L236 1.04196e-05C247.046 1.17256e-05 256 8.95432 256 20V1126C256 1137.05 247.046 1146 236 1146H20C8.95431 1146 0 1137.05 0 1126V70.5C0 59.4543 8.95431 50.5 20 50.5H106.5Z" fill="#2C2C2C" fill-opacity="0.44"/>
<path d="M146.5 0.5H236C246.77 0.500001 255.5 9.23045 255.5 20V1126C255.5 1136.77 246.77 1145.5 236 1145.5H20C9.23045 1145.5 0.5 1136.77 0.5 1126V70.5C0.5 59.7305 9.23045 51 20 51H106.5C117.822 51 127 41.8218 127 30.5V20C127 9.23045 135.73 0.500006 146.5 0.5Z" stroke="#444444" stroke-opacity="0.5"/>
</svg>
