<svg width="690" height="1850" viewBox="0 0 690 1850" fill="none" xmlns="http://www.w3.org/2000/svg">
<path d="M473 1.14214e-06C459.745 1.19181e-06 449 10.7452 449 24V31C449 44.2548 438.255 55 425 55L265.5 55C252.245 55 241.5 44.2548 241.5 31V24C241.5 10.7452 230.755 1.46371e-08 217.5 3.26928e-08L24 2.96279e-07C10.7452 3.14335e-07 0 10.7452 0 24V1826C0 1839.25 10.7452 1850 24 1850H666C679.255 1850 690 1839.25 690 1826V24C690 10.7451 679.255 3.69237e-07 666 4.18907e-07L473 1.14214e-06Z" fill="#2C2C2C" fill-opacity="0.44"/>
<path d="M666 0.5H473C460.021 0.5 449.5 11.0213 449.5 24V31C449.5 44.3194 438.871 55.1565 425.633 55.4922L425 55.5H265.5C251.969 55.5 241 44.531 241 31V24C241 11.0213 230.479 0.5 217.5 0.5H24C11.0213 0.5 0.5 11.0213 0.5 24V1826C0.5 1838.98 11.0213 1849.5 24 1849.5H666C678.979 1849.5 689.5 1838.98 689.5 1826V24C689.5 11.0213 678.979 0.5 666 0.5Z" stroke="#444444" stroke-opacity="0.5"/>
</svg>
