<svg width="1340" height="762" viewBox="0 0 1340 762" fill="none" xmlns="http://www.w3.org/2000/svg">
<path d="M1172.5 74C1154.83 74 1140.5 59.6731 1140.5 42V32C1140.5 14.3269 1126.17 8.51601e-06 1108.5 8.51601e-06H770.5L566 0L32 8.03454e-06C14.3269 8.30045e-06 0 14.3269 0 32V730C0 747.673 14.3269 762 32 762H1308C1325.67 762 1340 747.673 1340 730V106C1340 88.3269 1325.67 74 1308 74H1172.5Z" fill="#2C2C2C" fill-opacity="0.44"/>
<path d="M1108.5 0.5H32C14.603 0.5 0.500004 14.603 0.5 32V730C0.5 747.397 14.603 761.5 32 761.5H1308C1325.4 761.5 1339.5 747.397 1339.5 730V106C1339.5 88.603 1325.4 74.5 1308 74.5H1172.5C1154.55 74.5 1140 59.9493 1140 42V32C1140 14.603 1125.9 0.5 1108.5 0.5Z" stroke="#444444" stroke-opacity="0.5"/>
</svg>
