<svg xmlns="http://www.w3.org/2000/svg" width="1340" height="283" fill="none" xmlns:v="https://vecta.io/nano"><style><![CDATA[.B{fill:#b1ffbc}.C{fill-opacity:.32}.D{stroke:#8ceb9a}.E{stroke-linejoin:round}.F{stroke-dasharray:10 10}]]></style><g opacity=".8"><path d="M1104.05 218.71C809.974 500.121 851.308-35.701 507.845 303.102" stroke="#e5eae2" stroke-opacity=".4" stroke-width="2" class="E F"/><g opacity=".5"><rect x="614.5" y="187.5" width="39" height="39" rx="19.5" class="B C"/><g class="D"><rect x="614.5" y="187.5" width="39" height="39" rx="19.5"/><circle cx="634" cy="207" r="9.5" class="B"/></g></g><g opacity=".5"><rect x="1025.5" y="248.5" width="39" height="39" rx="19.5" class="B C"/><g class="D"><rect x="1025.5" y="248.5" width="39" height="39" rx="19.5"/><circle cx="1045" cy="268" r="9.5" class="B"/></g></g></g><g opacity=".64"><path d="M-3.771 33.031C653.455-595.895 561.077 601.615 1328.68-155.576" stroke="#e5eae2" stroke-opacity=".2" stroke-width="2" class="E F"/><g opacity=".32"><rect x="1082.5" y="8.5" width="39" height="39" rx="19.5" class="B C"/><g class="D"><rect x="1082.5" y="8.5" width="39" height="39" rx="19.5"/><circle cx="1102" cy="28" r="9.5" class="B"/></g></g><g opacity=".32"><rect x="735.5" y="56.5" width="39" height="39" rx="19.5" class="B C"/><g class="D"><rect x="735.5" y="56.5" width="39" height="39" rx="19.5"/><circle cx="755" cy="76" r="9.5" class="B"/></g></g></g></svg>