<svg width="688" height="962" viewBox="0 0 688 962" fill="none" xmlns="http://www.w3.org/2000/svg">
<path d="M0 28C0 12.536 12.536 0 28 0H404C419.464 0 432 12.536 432 28V39.5C432 54.964 444.536 67.5 460 67.5H660C675.464 67.5 688 80.036 688 95.5V934C688 949.464 675.464 962 660 962H28C12.536 962 0 949.464 0 934V28Z" fill="#2C2C2C" fill-opacity="0.54"/>
<path d="M28 0.5H404C419.188 0.5 431.5 12.8122 431.5 28V39.5C431.5 55.2401 444.26 68 460 68H660C675.188 68 687.5 80.3122 687.5 95.5V934C687.5 949.188 675.188 961.5 660 961.5H28C12.8122 961.5 0.5 949.188 0.5 934V28C0.5 12.8122 12.8122 0.5 28 0.5Z" stroke="#444444" stroke-opacity="0.5"/>
</svg>
