<svg width="1340" height="283" viewBox="0 0 1340 283" fill="none" xmlns="http://www.w3.org/2000/svg">
<g opacity="0.8">
<path d="M1104.05 218.71C809.974 500.121 851.308 -35.7006 507.845 303.102" stroke="#E5EAE2" stroke-opacity="0.4" stroke-width="2" stroke-linejoin="round" stroke-dasharray="10 10"/>
<g opacity="0.5">
<rect x="614.5" y="187.5" width="39" height="39" rx="19.5" fill="#B1FFBC" fill-opacity="0.32"/>
<rect x="614.5" y="187.5" width="39" height="39" rx="19.5" stroke="#8CEB9A"/>
<circle cx="634" cy="207" r="9.5" fill="#B1FFBC" stroke="#8CEB9A"/>
</g>
<g opacity="0.5">
<rect x="1025.5" y="248.5" width="39" height="39" rx="19.5" fill="#B1FFBC" fill-opacity="0.32"/>
<rect x="1025.5" y="248.5" width="39" height="39" rx="19.5" stroke="#8CEB9A"/>
<circle cx="1045" cy="268" r="9.5" fill="#B1FFBC" stroke="#8CEB9A"/>
</g>
</g>
<g opacity="0.64">
<path d="M-3.77113 33.0313C653.455 -595.895 561.077 601.615 1328.68 -155.576" stroke="#E5EAE2" stroke-opacity="0.2" stroke-width="2" stroke-linejoin="round" stroke-dasharray="10 10"/>
<g opacity="0.32">
<rect x="1082.5" y="8.5" width="39" height="39" rx="19.5" fill="#B1FFBC" fill-opacity="0.32"/>
<rect x="1082.5" y="8.5" width="39" height="39" rx="19.5" stroke="#8CEB9A"/>
<circle cx="1102" cy="28" r="9.5" fill="#B1FFBC" stroke="#8CEB9A"/>
</g>
<g opacity="0.32">
<rect x="735.5" y="56.5" width="39" height="39" rx="19.5" fill="#B1FFBC" fill-opacity="0.32"/>
<rect x="735.5" y="56.5" width="39" height="39" rx="19.5" stroke="#8CEB9A"/>
<circle cx="755" cy="76" r="9.5" fill="#B1FFBC" stroke="#8CEB9A"/>
</g>
</g>
</svg>
