<svg width="32" height="32" viewBox="0 0 32 32" fill="none" xmlns="http://www.w3.org/2000/svg">
<path d="M4 20.0004V22.4001C4 23.8936 4 24.6398 4.29065 25.2102C4.54631 25.712 4.95396 26.1207 5.45573 26.3764C6.0256 26.6667 6.77199 26.6667 8.26255 26.6667H28.0003M4 20.0004V6.66675M4 20.0004L9.13786 15.7188L9.14211 15.7154C10.0716 14.9409 10.5372 14.5529 11.0421 14.3953C11.6385 14.2091 12.2809 14.2385 12.8581 14.4779C13.3473 14.6809 13.7763 15.1099 14.6343 15.9679L14.643 15.9765C15.5143 16.8479 15.9511 17.2847 16.4482 17.4872C17.0365 17.7269 17.6914 17.7475 18.2943 17.5475C18.8054 17.378 19.2723 16.9701 20.2057 16.1534L28 9.33341" stroke="#B1FFBC" stroke-width="2" stroke-linecap="round" stroke-linejoin="round"/>
</svg>
