<svg width="40" height="40" viewBox="0 0 40 40" fill="none" xmlns="http://www.w3.org/2000/svg">
<path opacity="0.3" d="M32.0169 20.0667L29.4669 19.8833L28.9669 17.3833C28.5597 15.3041 27.4428 13.431 25.8072 12.0842C24.1716 10.7374 22.1189 10.0007 20.0002 10C16.5669 10 13.4669 11.9 11.8669 14.9333L11.0335 16.5167L9.25021 16.7C7.61937 16.8809 6.11301 17.6584 5.0208 18.8829C3.92859 20.1074 3.32765 21.6925 3.33354 23.3333C3.33354 27.0167 6.31687 30 10.0002 30H31.6669C34.4169 30 36.6669 27.75 36.6669 25C36.6669 22.4167 34.6335 20.2333 32.0169 20.0667Z" fill="white"/>
<path d="M32.25 16.7334C31.6902 13.8963 30.1627 11.3415 27.9284 9.50549C25.6942 7.66947 22.8918 6.66609 20 6.66675C15.1833 6.66675 11 9.40008 8.91667 13.4001C6.46706 13.6648 4.20168 14.8254 2.55581 16.6589C0.909952 18.4925 -0.00028617 20.8695 6.74879e-08 23.3334C6.74879e-08 28.8501 4.48333 33.3334 10 33.3334H31.6667C36.2667 33.3334 40 29.6001 40 25.0001C40 20.6001 36.5833 17.0334 32.25 16.7334ZM31.6667 30.0001H10C6.31667 30.0001 3.33333 27.0167 3.33333 23.3334C3.33333 19.9167 5.88333 17.0667 9.26667 16.7167L11.05 16.5334L11.8833 14.9501C12.6499 13.4582 13.8133 12.2067 15.2454 11.3333C16.6774 10.46 18.3226 9.99863 20 10.0001C24.3667 10.0001 28.1333 13.1001 28.9833 17.3834L29.4833 19.8834L32.0333 20.0667C33.2862 20.151 34.4607 20.7067 35.3204 21.6221C36.18 22.5374 36.6611 23.7444 36.6667 25.0001C36.6667 27.7501 34.4167 30.0001 31.6667 30.0001Z" fill="white"/>
</svg>
