<svg width="40" height="40" viewBox="0 0 40 40" fill="none" xmlns="http://www.w3.org/2000/svg">
<mask id="mask0_184_4722" style="mask-type:luminance" maskUnits="userSpaceOnUse" x="2" y="3" width="36" height="35">
<path d="M20.0002 14.1667C29.2049 14.1667 36.6668 11.9282 36.6668 9.16675C36.6668 6.40532 29.2049 4.16675 20.0002 4.16675C10.7954 4.16675 3.3335 6.40532 3.3335 9.16675C3.3335 11.9282 10.7954 14.1667 20.0002 14.1667Z" stroke="white" stroke-width="2" stroke-linecap="round" stroke-linejoin="round"/>
<path d="M8.97516 12.9167C5.51683 13.8334 3.3335 15.1734 3.3335 16.6667C3.3335 19.4284 10.7952 21.6667 20.0002 21.6667C29.2052 21.6667 36.6668 19.4284 36.6668 16.6667C36.6668 15.1734 34.4843 13.8334 31.0252 12.9167C28.0868 13.6942 24.2268 14.1667 20.0002 14.1667C15.7735 14.1667 11.9143 13.6942 8.97516 12.9167Z" fill="#555555" stroke="white" stroke-width="2" stroke-linecap="round" stroke-linejoin="round"/>
<path d="M8.97516 20.4167C5.51683 21.3334 3.3335 22.6734 3.3335 24.1667C3.3335 26.9284 10.7952 29.1667 20.0002 29.1667C29.2052 29.1667 36.6668 26.9284 36.6668 24.1667C36.6668 22.6734 34.4843 21.3334 31.0252 20.4167" stroke="white" stroke-width="2" stroke-linecap="round" stroke-linejoin="round"/>
<path d="M8.97516 27.9167C5.51683 28.8334 3.3335 30.1734 3.3335 31.6667C3.3335 34.4284 10.7952 36.6667 20.0002 36.6667C29.2052 36.6667 36.6668 34.4284 36.6668 31.6667C36.6668 30.1734 34.4843 28.8334 31.0252 27.9167" stroke="white" stroke-width="2" stroke-linecap="round" stroke-linejoin="round"/>
</mask>
<g mask="url(#mask0_184_4722)">
<path d="M0 0H40V40H0V0Z" fill="white"/>
</g>
</svg>
