<svg width="40" height="40" viewBox="0 0 40 40" fill="none" xmlns="http://www.w3.org/2000/svg">
<path fill-rule="evenodd" clip-rule="evenodd" d="M4.09128 18.5266C5.88461 15.3899 10.9246 8.33325 19.9996 8.33325C29.0729 8.33325 34.1146 15.3899 35.9063 18.5266C36.2746 19.1699 36.4579 19.4933 36.4396 19.9733C36.4179 20.4533 36.2013 20.7666 35.7696 21.3933C33.6363 24.4899 27.8429 31.6666 19.9996 31.6666C12.1563 31.6666 6.36294 24.4899 4.22961 21.3933C3.79628 20.7666 3.57961 20.4533 3.56128 19.9733C3.53961 19.4933 3.72461 19.1699 4.09128 18.5266ZM19.9996 24.9999C21.3257 24.9999 22.5975 24.4731 23.5351 23.5355C24.4728 22.5978 24.9996 21.326 24.9996 19.9999C24.9996 18.6738 24.4728 17.4021 23.5351 16.4644C22.5975 15.5267 21.3257 14.9999 19.9996 14.9999C18.6735 14.9999 17.4018 15.5267 16.4641 16.4644C15.5264 17.4021 14.9996 18.6738 14.9996 19.9999C14.9996 21.326 15.5264 22.5978 16.4641 23.5355C17.4018 24.4731 18.6735 24.9999 19.9996 24.9999Z" fill="white" fill-opacity="0.25"/>
<path d="M19.9998 8.33325C10.9265 8.33325 5.88485 15.3899 4.09318 18.5266C3.72485 19.1699 3.54151 19.4933 3.55985 19.9733C3.58151 20.4533 3.79818 20.7666 4.22985 21.3933C6.36318 24.4899 12.1565 31.6666 19.9998 31.6666C27.8432 31.6666 33.6365 24.4899 35.7698 21.3933C36.2032 20.7666 36.4198 20.4533 36.4382 19.9733C36.4565 19.4933 36.2748 19.1699 35.9065 18.5266C34.1165 15.3899 29.0732 8.33325 19.9998 8.33325Z" stroke="white" stroke-width="2"/>
<path d="M20 25C22.7614 25 25 22.7614 25 20C25 17.2386 22.7614 15 20 15C17.2386 15 15 17.2386 15 20C15 22.7614 17.2386 25 20 25Z" stroke="white" stroke-width="2"/>
</svg>
