<svg width="40" height="40" viewBox="0 0 40 40" fill="none" xmlns="http://www.w3.org/2000/svg">
<path d="M27.8263 5C24.4197 5 21.478 6.995 19.9997 9.905C18.5213 6.995 15.5797 5 12.173 5C7.28967 5 3.33301 9.095 3.33301 14.135C3.33301 19.175 6.36134 23.795 10.2747 27.59C14.188 31.385 19.9997 35 19.9997 35C19.9997 35 25.623 31.445 29.7247 27.59C34.0997 23.48 36.6663 19.19 36.6663 14.135C36.6663 9.08 32.7097 5 27.8263 5Z" fill="white" fill-opacity="0.16"/>
<path d="M27.8263 5C24.4197 5 21.478 6.995 19.9997 9.905C18.5213 6.995 15.5797 5 12.173 5C7.28967 5 3.33301 9.095 3.33301 14.135C3.33301 19.175 6.36134 23.795 10.2747 27.59C14.188 31.385 19.9997 35 19.9997 35C19.9997 35 25.623 31.445 29.7247 27.59C34.0997 23.48 36.6663 19.19 36.6663 14.135C36.6663 9.08 32.7097 5 27.8263 5Z" stroke="white" stroke-width="2" stroke-linecap="round" stroke-linejoin="round"/>
</svg>
