<svg width="32" height="32" viewBox="0 0 32 32" fill="none" xmlns="http://www.w3.org/2000/svg">
<path d="M23.9998 20H25.3332M11.9998 20H19.9998M7.99984 20H6.6665M6.6665 16H25.3332M6.6665 12H25.3332M2.6665 19.7336V12.2669C2.6665 10.7735 2.6665 10.0262 2.95715 9.45573C3.21282 8.95396 3.62047 8.54631 4.12223 8.29065C4.69266 8 5.43996 8 6.93343 8H25.0668C26.5602 8 27.3059 8 27.8764 8.29065C28.3781 8.54631 28.7871 8.95396 29.0428 9.45573C29.3332 10.0256 29.3332 10.772 29.3332 12.2625V19.7375C29.3332 21.228 29.3332 21.9733 29.0428 22.5432C28.7871 23.045 28.3781 23.454 27.8764 23.7096C27.3065 24 26.5612 24 25.0706 24H6.92905C5.4385 24 4.69211 24 4.12223 23.7096C3.62047 23.454 3.21282 23.045 2.95715 22.5432C2.6665 21.9728 2.6665 21.2271 2.6665 19.7336Z" stroke="#B1FFBC" stroke-width="2" stroke-linecap="round" stroke-linejoin="round"/>
</svg>
