<svg width="100" height="100" viewBox="0 0 100 100" fill="none" xmlns="http://www.w3.org/2000/svg">
<path d="M54.1668 87.4999H29.1668C26.9567 87.4999 24.8371 86.6219 23.2743 85.0591C21.7115 83.4963 20.8335 81.3767 20.8335 79.1666V54.1666C20.8335 51.9564 21.7115 49.8368 23.2743 48.274C24.8371 46.7112 26.9567 45.8333 29.1668 45.8333H70.8335" stroke="#EEF3EE" stroke-width="4" stroke-linecap="round" stroke-linejoin="round"/>
<path d="M33.3335 45.8333V29.1667C33.3335 24.7464 35.0894 20.5072 38.215 17.3816C41.3407 14.2559 45.5799 12.5 50.0002 12.5C54.4204 12.5 58.6597 14.2559 61.7853 17.3816C64.9109 20.5072 66.6668 24.7464 66.6668 29.1667V45.8333M87.5002 62.5H77.0835C75.4259 62.5 73.8362 63.1585 72.6641 64.3306C71.492 65.5027 70.8335 67.0924 70.8335 68.75C70.8335 70.4076 71.492 71.9973 72.6641 73.1694C73.8362 74.3415 75.4259 75 77.0835 75H81.2502C82.9078 75 84.4975 75.6585 85.6696 76.8306C86.8417 78.0027 87.5002 79.5924 87.5002 81.25C87.5002 82.9076 86.8417 84.4973 85.6696 85.6694C84.4975 86.8415 82.9078 87.5 81.2502 87.5H70.8335M79.1668 87.5V91.6667M79.1668 58.3333V62.5M45.8335 66.6667C45.8335 67.7717 46.2725 68.8315 47.0539 69.6129C47.8353 70.3943 48.8951 70.8333 50.0002 70.8333C51.1052 70.8333 52.165 70.3943 52.9464 69.6129C53.7278 68.8315 54.1668 67.7717 54.1668 66.6667C54.1668 65.5616 53.7278 64.5018 52.9464 63.7204C52.165 62.939 51.1052 62.5 50.0002 62.5C48.8951 62.5 47.8353 62.939 47.0539 63.7204C46.2725 64.5018 45.8335 65.5616 45.8335 66.6667Z" stroke="#EEF3EE" stroke-width="4" stroke-linecap="round" stroke-linejoin="round"/>
</svg>
