<svg width="80" height="80" viewBox="0 0 80 80" fill="none" xmlns="http://www.w3.org/2000/svg">
<g clip-path="url(#clip0_28_258)">
<path d="M80 0H0V80H80V0Z" fill="#1A1A1A"/>
<path d="M3.79198 77.3023V68.5751H9.05902V69.5126H4.84879V72.4614H8.78629V73.3989H4.84879V76.3648H9.1272V77.3023H3.79198ZM3.79198 92.3023V83.5751H4.84879V91.3648H8.90561V92.3023H3.79198ZM3.79198 107.302V98.5751H9.05902V99.5126H4.84879V102.461H8.78629V103.399H4.84879V106.365H9.1272V107.302H3.79198ZM4.14993 113.575L6.74084 120.922H6.84311L9.43402 113.575H10.542L7.33743 122.302H6.24652L3.04198 113.575H4.14993ZM4.14993 137.302H3.04198L6.24652 128.575H7.33743L10.542 137.302H9.43402L6.82607 129.956H6.75788L4.14993 137.302ZM4.55902 133.893H9.02493V134.831H4.55902V133.893ZM3.3147 144.513V143.575H9.86016V144.513H7.11584V152.302H6.05902V144.513H3.3147ZM3.79198 167.302V158.575H9.05902V159.513H4.84879V162.461H8.78629V163.399H4.84879V166.365H9.1272V167.302H3.79198ZM3.79198 182.302V173.575H9.05902V174.513H4.84879V177.461H8.78629V178.399H4.84879V181.365H9.1272V182.302H3.79198ZM3.79198 212.302V203.575H6.74084C7.4255 203.575 7.98516 203.699 8.41982 203.946C8.85732 204.19 9.18118 204.521 9.39141 204.939C9.60163 205.356 9.70675 205.822 9.70675 206.336C9.70675 206.851 9.60163 207.318 9.39141 207.738C9.18402 208.159 8.863 208.494 8.42834 208.744C7.99368 208.991 7.43686 209.115 6.75788 209.115H4.64425V208.177H6.72379C7.19254 208.177 7.56896 208.096 7.85306 207.934C8.13715 207.773 8.34311 207.554 8.47095 207.278C8.60163 207 8.66698 206.686 8.66698 206.336C8.66698 205.987 8.60163 205.675 8.47095 205.399C8.34311 205.123 8.13573 204.907 7.84879 204.751C7.56186 204.592 7.18118 204.513 6.70675 204.513H4.84879V212.302H3.79198ZM3.79198 227.302V218.575H9.05902V219.513H4.84879V222.461H8.78629V223.399H4.84879V226.365H9.1272V227.302H3.79198ZM3.79198 242.302V233.575H6.74084C7.42266 233.575 7.98232 233.692 8.41982 233.925C8.85732 234.155 9.18118 234.471 9.39141 234.875C9.60163 235.278 9.70675 235.737 9.70675 236.251C9.70675 236.765 9.60163 237.221 9.39141 237.619C9.18118 238.017 8.85874 238.329 8.42408 238.557C7.98942 238.781 7.43402 238.893 6.75788 238.893H4.37152V237.939H6.72379C7.1897 237.939 7.5647 237.871 7.84879 237.734C8.13573 237.598 8.34311 237.405 8.47095 237.155C8.60163 236.902 8.66698 236.601 8.66698 236.251C8.66698 235.902 8.60163 235.596 8.47095 235.335C8.34027 235.074 8.13146 234.872 7.84453 234.73C7.5576 234.585 7.17834 234.513 6.70675 234.513H4.84879V242.302H3.79198ZM7.89993 238.382L10.0477 242.302H8.82038L6.70675 238.382H7.89993ZM3.3147 249.513V248.575H9.86016V249.513H7.11584V257.302H6.05902V249.513H3.3147ZM8.5647 265.757C8.51357 265.325 8.30618 264.99 7.94254 264.751C7.57891 264.513 7.13288 264.393 6.60448 264.393C6.21811 264.393 5.88004 264.456 5.59027 264.581C5.30334 264.706 5.07891 264.878 4.91698 265.096C4.75788 265.315 4.67834 265.564 4.67834 265.842C4.67834 266.075 4.73374 266.275 4.84453 266.443C4.95817 266.608 5.10305 266.746 5.27919 266.856C5.45533 266.964 5.63999 267.054 5.83317 267.125C6.02635 267.193 6.20391 267.248 6.36584 267.291L7.2522 267.53C7.47948 267.589 7.73232 267.672 8.01073 267.777C8.29198 267.882 8.56044 268.025 8.81612 268.207C9.07465 268.386 9.28771 268.616 9.45533 268.898C9.62294 269.179 9.70675 269.524 9.70675 269.933C9.70675 270.405 9.58317 270.831 9.33601 271.211C9.09169 271.592 8.73374 271.895 8.26215 272.119C7.7934 272.344 7.22379 272.456 6.55334 272.456C5.92834 272.456 5.38715 272.355 4.92976 272.153C4.47521 271.951 4.11726 271.67 3.8559 271.309C3.59737 270.949 3.45107 270.53 3.41698 270.052H4.50788C4.53629 270.382 4.64709 270.655 4.84027 270.871C5.03629 271.084 5.28345 271.243 5.58175 271.348C5.88288 271.45 6.20675 271.501 6.55334 271.501C6.95675 271.501 7.31896 271.436 7.63999 271.305C7.96101 271.172 8.21527 270.987 8.40277 270.751C8.59027 270.513 8.68402 270.234 8.68402 269.916C8.68402 269.626 8.60306 269.39 8.44112 269.209C8.27919 269.027 8.06612 268.879 7.80192 268.765C7.53771 268.652 7.2522 268.552 6.94538 268.467L5.87152 268.16C5.1897 267.964 4.64993 267.684 4.2522 267.321C3.85448 266.957 3.65561 266.481 3.65561 265.893C3.65561 265.405 3.78771 264.978 4.05192 264.615C4.31896 264.248 4.67692 263.964 5.12578 263.763C5.57749 263.558 6.08175 263.456 6.63857 263.456C7.20107 263.456 7.70107 263.557 8.13857 263.758C8.57607 263.957 8.92266 264.23 9.17834 264.576C9.43686 264.923 9.57323 265.317 9.58743 265.757H8.5647Z" fill="white"/>
<path d="M4.30334 188.575L6.55334 192.206H6.62152L8.87152 188.575H10.1158L7.37152 192.939L10.1158 197.302H8.87152L6.62152 193.74H6.55334L4.30334 197.302H3.05902L5.87152 192.939L3.05902 188.575H4.30334Z" fill="#B1FFBC"/>
<path d="M20.0906 29.4539L20.9844 23.868H39.8117L34.3539 14.6508H11.8234L5.67891 53.7539H27.3602L35.6094 44.5367H17.7445L18.75 38.1125L20.0906 29.4539Z" fill="white"/>
<path d="M35.1352 14.6508L46.2852 33.4812L28.1414 53.7539H39.8828L57.35 33.5086L45.7586 14.6508H35.1352Z" fill="#B1FFBC"/>
<path d="M26.3586 29.2516H42.9992L45.5039 33.4813L41.0406 38.4688H24.9961L26.3586 29.2516Z" fill="#B1FFBC"/>
<path d="M51.0805 41.5898L58.2883 53.7508H69.793L57.6445 33.9875L51.0805 41.5898Z" fill="white"/>
<path d="M73.5805 14.6984H63.1602L53.1992 25.7391L57.7156 33.0859L73.5805 14.6984Z" fill="white"/>
<path d="M80 0H0V80H80V0Z" fill="#1A1A1A"/>
<path d="M21.4969 33.7203L22.3906 28.1344H41.218L35.7602 18.9172H13.2297L7.08516 58.0195H28.7664L37.0156 48.8023H19.1508L20.1562 42.3789L21.4969 33.7203Z" fill="white"/>
<path d="M36.5414 18.9172L47.6914 37.7469L29.5477 58.0195H41.2891L58.7562 37.775L47.1648 18.9172H36.5414Z" fill="#B1FFBC"/>
<path d="M27.7648 33.5172H44.4055L46.9102 37.7469L42.4469 42.7344H26.4023L27.7648 33.5172Z" fill="#B1FFBC"/>
<path d="M52.4867 45.8563L59.6945 58.0172H71.1992L59.0508 38.2539L52.4867 45.8563Z" fill="white"/>
<path d="M74.9867 18.9648H64.5664L54.6055 30.0047L59.1219 37.3516L74.9867 18.9648Z" fill="white"/>
</g>
<defs>
<clipPath id="clip0_28_258">
<rect width="80" height="80" rx="12" fill="white"/>
</clipPath>
</defs>
</svg>
