<svg width="24" height="24" viewBox="0 0 24 24" fill="none" xmlns="http://www.w3.org/2000/svg">
<path d="M17.9998 6.91357C18.1318 6.91357 18.2627 6.93999 18.3846 6.99072C18.5063 7.04143 18.6168 7.1159 18.7097 7.20947C18.8112 7.30308 18.8926 7.41701 18.948 7.54346C19.0034 7.66995 19.032 7.80673 19.032 7.94482C19.032 8.08293 19.0034 8.21969 18.948 8.34619C18.8926 8.47266 18.8112 8.58655 18.7097 8.68018L10.5496 16.8403C10.4567 16.9338 10.3461 17.0084 10.2244 17.0591C10.1026 17.1098 9.97154 17.1353 9.83963 17.1353C9.70791 17.1352 9.57745 17.1097 9.45584 17.0591C9.33401 17.0083 9.22262 16.934 9.12967 16.8403L5.28982 12.9995C5.19351 12.9064 5.1167 12.7952 5.06326 12.6724C5.00979 12.5493 4.98064 12.4168 4.9783 12.2827C4.97598 12.1485 5.00039 12.015 5.04959 11.8901C5.09879 11.7653 5.17221 11.6517 5.26541 11.5552C5.35862 11.4587 5.46953 11.3811 5.59256 11.3276C5.7156 11.2742 5.84807 11.245 5.98221 11.2427C6.11639 11.2404 6.24993 11.2648 6.37479 11.314C6.49955 11.3631 6.61327 11.4366 6.70975 11.5298L9.83963 14.6694L17.2898 7.20947C17.3827 7.11586 17.4933 7.04147 17.615 6.99072C17.7368 6.93998 17.8679 6.9136 17.9998 6.91357Z" fill="#1A1A1A"/>
</svg>
