<svg width="40" height="40" viewBox="0 0 40 40" fill="none" xmlns="http://www.w3.org/2000/svg">
<path opacity="0.2" d="M7.00225 15.8801C6.97625 13.0841 8.66625 10.6261 11.1682 9.38008L18.4402 5.77008C19.5465 5.22038 20.765 4.93433 22.0002 4.93433C23.2355 4.93433 24.454 5.22038 25.5602 5.77008L32.8323 9.38408C35.3323 10.6281 37.0243 13.0861 36.9983 15.8801C36.9663 19.4401 36.5923 24.3481 35.0043 27.6781C33.2383 31.3781 29.1003 34.9601 25.9622 37.2981C24.8208 38.1589 23.43 38.6246 22.0002 38.6246C20.5705 38.6246 19.1797 38.1589 18.0382 37.2981C14.9002 34.9601 10.7622 31.3781 8.99825 27.6781C7.40825 24.3481 7.03425 19.4381 7.00225 15.8801Z" fill="white"/>
<path fill-rule="evenodd" clip-rule="evenodd" d="M23.1163 4.66405C22.1483 4.18307 21.0822 3.93277 20.0013 3.93277C18.9204 3.93277 17.8542 4.18307 16.8863 4.66405L9.6143 8.28005C7.4143 9.37205 5.9803 11.5001 6.0003 13.8701C6.0323 17.4221 6.4143 22.1341 7.8983 25.2461C9.5463 28.7021 13.4983 32.1581 16.6343 34.4961C18.6483 35.9961 21.3483 35.9961 23.3623 34.4961C26.4963 32.1581 30.4503 28.7021 32.0983 25.2441C33.5823 22.1341 33.9643 17.4241 33.9963 13.8701C34.0163 11.5021 32.5863 9.37005 30.3843 8.27805L23.1163 4.66405ZM15.9963 2.87405C17.2405 2.25597 18.611 1.93433 20.0003 1.93433C21.3896 1.93433 22.7601 2.25597 24.0043 2.87405L31.2763 6.48605C34.0803 7.88005 36.0263 10.6661 35.9963 13.8861C35.9663 17.4521 35.5963 22.5601 33.9063 26.1061C32.0263 30.0501 27.7003 33.7581 24.5603 36.1001C23.2456 37.0886 21.6452 37.6231 20.0003 37.6231C18.3554 37.6231 16.755 37.0886 15.4403 36.1001C12.3003 33.7581 7.9743 30.0501 6.0943 26.1061C4.4003 22.5601 4.0343 17.4521 4.0003 13.8861C3.9723 10.6661 5.9203 7.88005 8.7223 6.48605L15.9963 2.87405Z" fill="white"/>
<path fill-rule="evenodd" clip-rule="evenodd" d="M25.5907 15.7682C26.0147 16.1242 26.0707 16.7562 25.7207 17.1822L22.1607 21.4922C21.8958 21.8132 21.5666 22.075 21.1942 22.2606C20.8218 22.4463 20.4145 22.5517 19.9988 22.57C19.5831 22.5882 19.1682 22.519 18.7809 22.3668C18.3936 22.2146 18.0426 21.9827 17.7507 21.6862L15.3347 19.2462C15.1475 19.0574 15.0424 18.8025 15.042 18.5366C15.0416 18.2708 15.1461 18.0155 15.3327 17.8262C15.425 17.7334 15.5348 17.6597 15.6558 17.6096C15.7768 17.5595 15.9065 17.5339 16.0375 17.5343C16.1685 17.5346 16.298 17.561 16.4187 17.6118C16.5394 17.6626 16.6489 17.7368 16.7407 17.8302L19.1587 20.2702C19.5727 20.6902 20.2547 20.6582 20.6287 20.2062L24.1887 15.8942C24.272 15.7936 24.3745 15.7104 24.4901 15.6496C24.6057 15.5887 24.7323 15.5513 24.8624 15.5396C24.9926 15.5279 25.1237 15.5421 25.2484 15.5813C25.373 15.6206 25.4887 15.6841 25.5887 15.7682" fill="white"/>
</svg>
