<svg width="32" height="32" viewBox="0 0 32 32" fill="none" xmlns="http://www.w3.org/2000/svg">
<path d="M10.6667 10.6666H8.26693C6.77345 10.6666 6.02616 10.6666 5.45573 10.9572C4.95396 11.2129 4.54631 11.6205 4.29065 12.1223C4 12.6927 4 13.44 4 14.9335V22.4002C4 23.8937 4 24.64 4.29065 25.2104C4.54631 25.7122 4.95396 26.1206 5.45573 26.3762C6.0256 26.6666 6.77199 26.6666 8.26255 26.6666H23.7375C25.228 26.6666 25.9733 26.6666 26.5432 26.3762C27.045 26.1206 27.454 25.7122 27.7096 25.2104C28 24.6406 28 23.8952 28 22.4047V14.9291C28 13.4386 28 12.6922 27.7096 12.1223C27.454 11.6205 27.045 11.2129 26.5432 10.9572C25.9728 10.6666 25.2271 10.6666 23.7336 10.6666H21.3333M10.6667 10.6666H21.3333M10.6667 10.6666C10.6667 7.72107 13.0545 5.33325 16 5.33325C18.9455 5.33325 21.3333 7.72107 21.3333 10.6666" stroke="#B1FFBC" stroke-width="2" stroke-linecap="round" stroke-linejoin="round"/>
</svg>
