<svg width="100" height="100" viewBox="0 0 100 100" fill="none" xmlns="http://www.w3.org/2000/svg">
<path d="M41.8706 62.1093C46.4186 60.0401 50.1213 56.4764 52.3626 52.0107C54.604 47.5451 55.249 42.4467 54.1904 37.5635C53.1319 32.6804 50.4334 28.3068 46.544 25.1702C42.6546 22.0336 37.8086 20.323 32.812 20.323C27.8154 20.323 22.9694 22.0336 19.08 25.1702C15.1906 28.3068 12.4922 32.6804 11.4336 37.5635C10.375 42.4467 11.02 47.5451 13.2614 52.0107C15.5028 56.4764 19.2054 60.0401 23.7534 62.1093C15.0852 64.3561 7.57075 69.7637 2.68702 77.2694C2.57142 77.4412 2.49113 77.6343 2.45081 77.8374C2.41049 78.0405 2.41094 78.2496 2.45214 78.4525C2.49334 78.6555 2.57446 78.8482 2.6908 79.0195C2.80713 79.1908 2.95636 79.3373 3.1298 79.4504C3.30324 79.5635 3.49743 79.641 3.7011 79.6785C3.90476 79.7159 4.11383 79.7124 4.31615 79.6683C4.51847 79.6242 4.71001 79.5404 4.87963 79.4216C5.04925 79.3028 5.19357 79.1515 5.3042 78.9765C8.28366 74.3947 12.3604 70.6297 17.1642 68.0234C21.968 65.4171 27.3467 64.052 32.812 64.052C38.2773 64.052 43.6561 65.4171 48.4599 68.0234C53.2637 70.6297 57.3404 74.3947 60.3198 78.9765C60.4305 79.1515 60.5748 79.3028 60.7444 79.4216C60.914 79.5404 61.1056 79.6242 61.3079 79.6683C61.5102 79.7124 61.7193 79.7159 61.9229 79.6785C62.1266 79.641 62.3208 79.5635 62.4942 79.4504C62.6677 79.3373 62.8169 79.1908 62.9332 79.0195C63.0496 78.8482 63.1307 78.6555 63.1719 78.4525C63.2131 78.2496 63.2136 78.0405 63.1732 77.8374C63.1329 77.6343 63.0526 77.4412 62.937 77.2694C58.0533 69.7637 50.5388 64.3561 41.8706 62.1093ZM14.062 42.1874C14.062 38.479 15.1617 34.8539 17.222 31.7705C19.2822 28.687 22.2106 26.2838 25.6367 24.8647C29.0628 23.4455 32.8328 23.0742 36.47 23.7977C40.1071 24.5211 43.448 26.3069 46.0703 28.9291C48.6925 31.5514 50.4783 34.8923 51.2017 38.5295C51.9252 42.1666 51.5539 45.9366 50.1348 49.3627C48.7156 52.7888 46.3124 55.7172 43.229 57.7774C40.1455 59.8377 36.5204 60.9374 32.812 60.9374C27.8408 60.9322 23.0747 58.9551 19.5595 55.4399C16.0443 51.9248 14.0672 47.1586 14.062 42.1874ZM96.8745 79.4335C96.5274 79.659 96.1049 79.7375 95.6999 79.6519C95.2949 79.5662 94.9404 79.3233 94.7144 78.9765C91.7368 74.3891 87.6576 70.6208 82.849 68.0156C78.0405 65.4104 72.6559 64.0513 67.187 64.0624C66.7726 64.0624 66.3752 63.8978 66.0822 63.6048C65.7891 63.3117 65.6245 62.9143 65.6245 62.4999C65.6245 62.0855 65.7891 61.6881 66.0822 61.395C66.3752 61.102 66.7726 60.9374 67.187 60.9374C69.9488 60.9359 72.6762 60.3243 75.1741 59.1463C77.6721 57.9684 79.879 56.2531 81.6371 54.1232C83.3952 51.9932 84.661 49.5012 85.3442 46.8252C86.0273 44.1493 86.1109 41.3554 85.5889 38.6434C85.0668 35.9314 83.9522 33.3682 82.3245 31.137C80.6968 28.9058 78.5963 27.0618 76.1732 25.7366C73.7501 24.4115 71.0641 23.638 68.3074 23.4715C65.5506 23.305 62.7911 23.7495 60.2261 24.7733C60.0355 24.8503 59.8316 24.8889 59.6261 24.8871C59.4206 24.8853 59.2175 24.843 59.0283 24.7626C58.8392 24.6823 58.6677 24.5655 58.5237 24.4188C58.3796 24.2722 58.2659 24.0987 58.189 23.9081C58.112 23.7175 58.0734 23.5137 58.0752 23.3082C58.077 23.1026 58.1193 22.8995 58.1997 22.7103C58.28 22.5212 58.3969 22.3497 58.5435 22.2057C58.6901 22.0617 58.8636 21.9479 59.0542 21.871C64.3896 19.5918 70.4119 19.5254 75.7963 21.6865C81.1806 23.8475 85.4859 28.059 87.7651 33.3944C90.0443 38.7298 90.1107 44.7521 87.9497 50.1365C85.7886 55.5208 81.5771 59.8262 76.2417 62.1054C84.913 64.357 92.4279 69.772 97.3081 77.2851C97.5322 77.6284 97.6123 78.0461 97.5312 78.448C97.4501 78.85 97.2142 79.2039 96.8745 79.4335Z" fill="#EEF3EE"/>
</svg>
