<svg width="1340" height="640" viewBox="0 0 1340 640" fill="none" xmlns="http://www.w3.org/2000/svg">
<path d="M0 32C0 14.3269 14.3269 7.15256e-06 32 7.15256e-06H540C556.292 7.15256e-06 569.5 13.2076 569.5 29.5C569.5 45.7924 582.708 59 599 59H744.5C760.792 59 774 45.7924 774 29.5C774 13.2076 787.208 1.66905e-07 803.5 3.72792e-07L1308 6.74817e-06C1325.67 6.97151e-06 1340 14.3269 1340 32V608C1340 625.673 1325.67 640 1308 640H32C14.3269 640 0 625.673 0 608V32Z" fill="#2C2C2C" fill-opacity="0.54"/>
<path d="M32 0.5H540C556.016 0.5 569 13.4837 569 29.5C569 46.0685 582.431 59.5 599 59.5H744.5C761.069 59.5 774.5 46.0685 774.5 29.5C774.5 13.4837 787.484 0.5 803.5 0.5H1308C1325.4 0.5 1339.5 14.603 1339.5 32V608C1339.5 625.397 1325.4 639.5 1308 639.5H32C14.603 639.5 0.5 625.397 0.5 608V32L0.510742 31.1865C0.942225 14.1655 14.875 0.5 32 0.5Z" stroke="#444444" stroke-opacity="0.5"/>
<g filter="url(#filter0_f_2013_11255)">
<ellipse cx="669.995" cy="829.62" rx="301.414" ry="234.73" transform="rotate(28.3181 669.995 829.62)" fill="#06CE22" fill-opacity="0.4"/>
</g>
<g opacity="0.8">
<g opacity="0.5">
<rect x="1066.25" y="183" width="261" height="56" rx="28" transform="rotate(10.5424 1066.25 183)" fill="#111111"/>
<rect x="1066.65" y="183.583" width="260" height="55" rx="27.5" transform="rotate(10.5424 1066.65 183.583)" stroke="#444444" stroke-opacity="0.5"/>
<path d="M1127.22 229.097L1135.2 230.584L1134.87 232.389L1124.88 230.531L1127.6 215.938L1137.39 217.76L1137.06 219.565L1129.26 218.114L1128.44 222.531L1134.51 223.66L1134.18 225.426L1128.11 224.297L1127.22 229.097ZM1145.69 222.284C1148.18 222.749 1149.58 224.837 1149.09 227.487L1147.73 234.783L1145.81 234.426L1147.06 227.705C1147.46 225.593 1146.64 224.21 1144.91 223.888C1142.92 223.516 1141.08 224.606 1140.71 226.603L1139.48 233.247L1137.56 232.889L1139.7 221.368L1141.31 221.669L1141.11 223.617C1142.2 222.469 1143.88 221.948 1145.69 222.284ZM1161.97 225.514L1163.59 225.814L1161.6 236.291C1161.05 239.248 1158.58 240.974 1155.2 240.345C1153.17 239.966 1151.78 239.073 1150.95 237.805L1152.35 236.675C1153.08 237.845 1154.06 238.384 1155.52 238.655C1158.24 239.163 1159.46 237.76 1159.81 235.878L1160.04 234.649C1158.89 235.668 1157.34 236.133 1155.68 235.826C1152.61 235.254 1150.99 232.648 1151.63 229.23C1152.25 225.889 1154.83 223.985 1157.79 224.535C1159.55 224.864 1160.84 225.858 1161.49 227.252L1161.97 225.514ZM1156.45 234.26C1158.64 234.668 1160.36 233.358 1160.81 230.938C1161.25 228.557 1160.12 226.718 1157.93 226.311C1155.74 225.904 1154.03 227.214 1153.59 229.595C1153.14 232.014 1154.26 233.853 1156.45 234.26ZM1167.82 224.853L1168.22 222.702L1170.37 223.103L1169.97 225.253L1167.82 224.853ZM1165.48 238.085L1167.62 226.564L1169.54 226.922L1167.4 238.443L1165.48 238.085ZM1179.56 228.588C1182.06 229.052 1183.46 231.141 1182.96 233.79L1181.6 241.087L1179.68 240.73L1180.94 234.009C1181.33 231.897 1180.51 230.513 1178.78 230.192C1176.79 229.82 1174.96 230.91 1174.58 232.907L1173.35 239.55L1171.43 239.193L1173.57 227.672L1175.18 227.972L1174.98 229.921C1176.07 228.772 1177.76 228.252 1179.56 228.588ZM1187.29 236.82C1187.1 239.09 1188.26 240.776 1190.45 241.183C1192.33 241.533 1193.53 241.042 1194.31 240.273L1195.47 241.721C1194.42 242.677 1192.67 243.344 1190.17 242.88C1186.45 242.187 1184.81 239.259 1185.44 235.841C1186.1 232.308 1188.89 230.325 1192.19 230.939C1195.5 231.554 1197.21 234.297 1196.54 237.907C1196.5 238.137 1196.46 238.329 1196.39 238.514L1187.29 236.82ZM1191.89 232.59C1189.89 232.219 1188.3 233.274 1187.61 235.291L1194.71 236.613C1194.83 234.489 1193.77 232.941 1191.89 232.59ZM1200.38 239.257C1200.2 241.527 1201.35 243.213 1203.54 243.62C1205.42 243.97 1206.63 243.479 1207.41 242.71L1208.57 244.158C1207.52 245.114 1205.76 245.782 1203.27 245.317C1199.54 244.624 1197.9 241.696 1198.54 238.278C1199.19 234.745 1201.99 232.762 1205.29 233.376C1208.59 233.991 1210.31 236.734 1209.64 240.344C1209.59 240.574 1209.56 240.766 1209.48 240.951L1200.38 239.257ZM1204.98 235.028C1202.99 234.656 1201.4 235.712 1200.71 237.728L1207.81 239.05C1207.93 236.927 1206.86 235.378 1204.98 235.028ZM1219.54 236.028C1219.81 236.078 1220.07 236.166 1220.33 236.255L1219.98 238.136C1219.56 238.019 1219.14 237.941 1218.64 237.848C1216.72 237.491 1214.94 238.549 1214.58 240.469L1213.36 246.997L1211.44 246.64L1213.59 235.119L1215.2 235.419L1215 237.368C1216.08 236.22 1217.77 235.699 1219.54 236.028ZM1223 235.123L1223.4 232.973L1225.55 233.373L1225.15 235.524L1223 235.123ZM1220.66 248.355L1222.8 236.834L1224.72 237.192L1222.58 248.713L1220.66 248.355ZM1234.75 238.858C1237.24 239.323 1238.64 241.411 1238.15 244.061L1236.79 251.357L1234.87 251L1236.12 244.279C1236.51 242.167 1235.7 240.784 1233.97 240.462C1231.97 240.09 1230.14 241.18 1229.77 243.177L1228.53 249.821L1226.61 249.463L1228.76 237.942L1230.37 238.242L1230.17 240.191C1231.25 239.043 1232.94 238.522 1234.75 238.858ZM1251.03 242.088L1252.64 242.388L1250.65 252.865C1250.1 255.822 1247.64 257.548 1244.26 256.919C1242.22 256.54 1240.84 255.647 1240 254.379L1241.4 253.249C1242.14 254.419 1243.11 254.958 1244.57 255.229C1247.3 255.737 1248.51 254.334 1248.86 252.452L1249.09 251.223C1247.95 252.242 1246.39 252.707 1244.74 252.4C1241.67 251.828 1240.05 249.222 1240.68 245.804C1241.31 242.463 1243.89 240.559 1246.84 241.109C1248.61 241.438 1249.89 242.432 1250.55 243.825L1251.03 242.088ZM1245.51 250.834C1247.7 251.242 1249.41 249.932 1249.86 247.512C1250.31 245.131 1249.18 243.292 1246.99 242.885C1244.8 242.477 1243.09 243.788 1242.64 246.169C1242.19 248.588 1243.32 250.427 1245.51 250.834Z" fill="white"/>
</g>
<rect x="1142.24" y="253.698" width="177" height="55" rx="27.5" transform="rotate(54.0804 1142.24 253.698)" fill="#111111" fill-opacity="0.4"/>
<rect x="1142.24" y="253.698" width="177" height="55" rx="27.5" transform="rotate(54.0804 1142.24 253.698)" stroke="#444444"/>
<path d="M1167.23 323.41C1169.96 327.174 1169.1 330.981 1165.46 333.616C1161.92 336.183 1157.87 335.788 1155.21 332.118L1152.12 327.847L1164.14 319.139L1167.23 323.41ZM1156.67 331.064C1158.55 333.658 1161.49 333.933 1164.25 331.94C1167 329.946 1167.66 327.058 1165.78 324.464L1163.88 321.838L1154.76 328.438L1156.67 331.064ZM1168.08 346.958L1168.34 347.306L1166.94 348.315C1166.87 348.274 1166.65 348.044 1166.49 347.823C1165.64 346.652 1165.71 345.88 1166.78 344.96C1165.3 344.974 1163.72 344.19 1162.68 342.767C1161.35 340.932 1161.58 338.842 1163.25 337.627C1165.53 335.977 1167.67 337.802 1169.31 339.462C1170.73 340.892 1171.26 341.424 1172.05 340.852C1172.91 340.233 1172.83 338.989 1171.91 337.724C1171.11 336.617 1169.85 335.885 1168.46 335.69L1168.76 333.976C1170.56 334.263 1172.15 335.188 1173.32 336.802C1174.9 338.984 1174.71 341.193 1172.78 342.59L1168.26 345.867C1167.82 346.188 1167.76 346.516 1168.08 346.958ZM1164.15 341.994C1165.3 343.576 1167.41 344.166 1168.71 343.226L1170.16 342.172C1169.66 342.007 1169.15 341.507 1168.24 340.577C1167.05 339.409 1165.82 338.178 1164.43 339.186C1163.45 339.896 1163.37 340.919 1164.15 341.994ZM1180.39 349.765L1178.21 346.759L1172.77 350.701C1171.7 351.48 1171.73 352.129 1172.44 353.11C1172.79 353.584 1173.12 353.973 1173.81 354.531L1172.32 355.608C1171.71 355.09 1171.21 354.535 1170.77 353.934C1169.47 352.131 1169.7 350.517 1171.34 349.325L1177.07 345.178L1175.72 343.311L1177.08 342.326L1178.43 344.192L1181.14 342.612L1182.1 343.941L1179.57 345.774L1181.75 348.779L1180.39 349.765ZM1180.62 364.262L1180.87 364.61L1179.48 365.619C1179.4 365.578 1179.19 365.348 1179.03 365.127C1178.18 363.956 1178.25 363.184 1179.32 362.264C1177.83 362.278 1176.25 361.494 1175.22 360.071C1173.89 358.236 1174.11 356.146 1175.79 354.931C1178.07 353.281 1180.21 355.106 1181.85 356.766C1183.27 358.196 1183.8 358.728 1184.59 358.156C1185.44 357.537 1185.36 356.293 1184.44 355.028C1183.64 353.921 1182.39 353.189 1180.99 352.994L1181.3 351.28C1183.1 351.567 1184.68 352.492 1185.85 354.106C1187.43 356.288 1187.25 358.497 1185.32 359.894L1180.79 363.171C1180.35 363.492 1180.3 363.82 1180.62 364.262ZM1176.69 359.298C1177.83 360.88 1179.95 361.47 1181.24 360.53L1182.7 359.476C1182.19 359.311 1181.69 358.811 1180.77 357.881C1179.59 356.713 1178.36 355.482 1176.97 356.49C1175.99 357.2 1175.91 358.223 1176.69 359.298Z" fill="white"/>
<rect x="842.658" y="312.381" width="227" height="55" rx="27.5" transform="rotate(-23.557 842.658 312.381)" fill="#111111" fill-opacity="0.4"/>
<rect x="842.658" y="312.381" width="227" height="55" rx="27.5" transform="rotate(-23.557 842.658 312.381)" stroke="#444444"/>
<path d="M921.242 302.656L913.866 305.872L915.661 309.99L921.426 307.476L922.144 309.124L916.379 311.637L919.065 317.796L917.203 318.608L911.27 305.001L920.508 300.973L921.242 302.656ZM929.342 300.318C929.593 300.208 929.859 300.135 930.125 300.061L930.89 301.816C930.481 301.952 930.087 302.124 929.621 302.327C927.831 303.107 926.945 304.985 927.726 306.775L930.38 312.863L928.589 313.643L923.906 302.901L925.41 302.245L926.334 303.973C926.591 302.412 927.695 301.036 929.342 300.318ZM941.093 308.405C937.834 309.826 934.769 308.562 933.302 305.197C931.865 301.902 933.102 298.678 936.253 297.305C939.511 295.884 942.576 297.147 944.044 300.513C945.48 303.807 944.244 307.031 941.093 308.405ZM940.406 306.829C942.554 305.893 943.264 303.708 942.218 301.309C941.172 298.91 939.088 297.943 936.94 298.88C934.791 299.817 934.082 302.001 935.128 304.4C936.174 306.799 938.257 307.766 940.406 306.829ZM949.931 291.341C952.259 290.326 954.588 291.271 955.665 293.741L958.632 300.545L956.841 301.325L954.109 295.059C953.25 293.09 951.8 292.401 950.188 293.104C948.326 293.916 947.42 295.845 948.232 297.707L950.933 303.901L949.143 304.682L944.459 293.94L945.963 293.284L946.887 295.012C947.144 293.451 948.248 292.075 949.931 291.341ZM963.75 287.361L960.348 288.845L963.034 295.003C963.564 296.221 964.206 296.324 965.316 295.841C965.853 295.606 966.303 295.368 966.997 294.809L967.731 296.492C967.093 296.983 966.444 297.352 965.764 297.648C963.723 298.538 962.196 297.968 961.384 296.106L958.558 289.625L956.445 290.546L955.774 289.006L957.887 288.085L956.924 285.096L958.428 284.44L959.677 287.305L963.079 285.822L963.75 287.361ZM968.786 290.407C969.906 292.391 971.808 293.138 973.849 292.248C975.604 291.483 976.326 290.401 976.539 289.328L978.312 289.876C977.977 291.258 976.9 292.793 974.572 293.808C971.099 295.322 968.099 293.818 966.71 290.631C965.273 287.336 966.474 284.128 969.553 282.786C972.633 281.443 975.59 282.753 977.058 286.119C977.152 286.334 977.23 286.513 977.272 286.707L968.786 290.407ZM970.225 284.325C968.363 285.137 967.64 286.901 968.197 288.96L974.821 286.071C973.728 284.247 971.979 283.56 970.225 284.325ZM982.874 276.978C985.201 275.963 987.531 276.908 988.608 279.379L991.574 286.182L989.784 286.963L987.052 280.696C986.193 278.727 984.742 278.038 983.131 278.741C981.269 279.553 980.363 281.482 981.175 283.344L983.876 289.539L982.085 290.319L977.402 279.577L978.906 278.921L979.829 280.649C980.086 279.088 981.191 277.712 982.874 276.978ZM996.322 267.066L998.113 266.286L1004.36 280.609L1002.85 281.264L1001.93 279.536C1001.62 281.164 1000.57 282.474 998.993 283.161C996.128 284.41 993.278 283.053 991.81 279.687C990.374 276.393 991.396 273.263 994.153 272.06C995.693 271.389 997.247 271.436 998.555 272.187L996.322 267.066ZM998.735 281.398C1000.78 280.508 1001.41 278.355 1000.37 275.956C999.322 273.557 997.311 272.559 995.27 273.449C993.229 274.338 992.591 276.492 993.637 278.891C994.683 281.29 996.694 282.288 998.735 281.398Z" fill="white"/>
<g opacity="0.72">
<rect x="990.644" y="306.583" width="149" height="55" rx="27.5" transform="rotate(10.54 990.644 306.583)" fill="#111111" fill-opacity="0.4"/>
<rect x="990.644" y="306.583" width="149" height="55" rx="27.5" transform="rotate(10.54 990.644 306.583)" stroke="#444444"/>
<path d="M1059.14 355.436L1058.36 351.516L1051.1 350.166L1048.96 353.543L1046.89 353.157L1055.59 339.678L1057.97 340.121L1061.25 355.829L1059.14 355.436ZM1052.12 348.528L1057.96 349.614L1056.39 341.774L1052.12 348.528ZM1063.86 356.315L1066.58 341.722L1068.57 342.093L1065.86 356.687L1063.86 356.315Z" fill="white"/>
</g>
<rect x="465" y="565.796" width="281" height="56" rx="28" transform="rotate(-5.26729 465 565.796)" fill="#111111"/>
<rect x="465.544" y="566.248" width="280" height="55" rx="27.5" transform="rotate(-5.26729 465.544 566.248)" stroke="#444444" stroke-opacity="0.5"/>
<path d="M540.143 595.218C535.942 595.605 532.944 592.861 532.52 588.271C532.108 583.798 534.661 580.424 538.745 580.048C541.74 579.771 544.101 581.123 545.253 583.841L543.447 584.675C542.631 582.631 541.049 581.64 538.91 581.837C536.031 582.102 534.259 584.58 534.582 588.081C534.912 591.659 537.022 593.701 539.978 593.428C542.118 593.231 543.492 591.967 543.921 589.809L545.849 590.298C545.24 593.061 543.139 594.942 540.143 595.218ZM556.165 581.776L558.187 581.59L554.847 594.294C554.355 596.183 553.338 597.924 551.471 598.096C549.371 598.29 548.223 596.905 548.097 595.112L549.819 594.64C549.862 595.538 550.178 596.411 551.306 596.307C552.045 596.239 552.504 595.686 552.885 594.71L546.246 582.69L548.385 582.493L553.607 592.329L556.165 581.776ZM566.26 580.649C569.372 580.362 571.652 582.545 571.989 586.201C572.319 589.78 570.367 592.431 567.372 592.707C565.582 592.872 564.114 592.262 563.058 591.026L563.075 592.907L561.441 593.058L560.007 577.499L561.952 577.32L562.472 582.96C563.291 581.629 564.626 580.8 566.26 580.649ZM566.747 591.039C568.964 590.835 570.246 588.99 570.005 586.384C569.765 583.778 568.168 582.199 565.951 582.404C563.734 582.608 562.452 584.452 562.693 587.058C562.933 589.665 564.53 591.243 566.747 591.039ZM576.131 586.447C576.572 588.682 578.144 589.988 580.361 589.784C582.267 589.608 583.292 588.808 583.832 587.856L585.343 588.932C584.591 590.139 583.086 591.259 580.558 591.492C576.785 591.84 574.409 589.47 574.09 586.008C573.76 582.429 575.907 579.76 579.252 579.451C582.597 579.143 584.994 581.315 585.331 584.971C585.353 585.205 585.371 585.399 585.35 585.597L576.131 586.447ZM579.406 581.124C577.383 581.311 576.144 582.759 576.026 584.888L583.222 584.224C582.756 582.149 581.312 580.948 579.406 581.124ZM593.683 578.121C593.955 578.096 594.231 578.11 594.507 578.124L594.683 580.03C594.251 580.03 593.823 580.07 593.318 580.116C591.373 580.295 589.942 581.8 590.122 583.745L590.731 590.358L588.786 590.537L587.71 578.868L589.344 578.717L589.679 580.648C590.413 579.246 591.893 578.286 593.683 578.121ZM601.446 589.566C599.462 589.749 597.771 589.277 596.376 588.19L597.379 586.724C598.441 587.607 599.771 587.994 601.327 587.851C603 587.697 603.918 587.024 603.825 586.012C603.743 585.118 602.999 584.715 600.732 584.375C597.626 583.877 596.412 583.048 596.251 581.297C596.064 579.274 597.728 577.748 600.373 577.504C601.929 577.361 603.493 577.727 604.785 578.549L603.758 580.174C602.826 579.436 601.698 579.108 600.453 579.223C598.975 579.359 598.056 580.032 598.142 580.966C598.218 581.783 598.961 582.185 601.112 582.536C604.302 583.105 605.516 583.934 605.678 585.685C605.871 587.785 604.208 589.311 601.446 589.566ZM609.116 583.406C609.557 585.641 611.129 586.947 613.346 586.743C615.252 586.567 616.277 585.767 616.817 584.815L618.328 585.891C617.577 587.098 616.071 588.218 613.543 588.451C609.77 588.799 607.394 586.429 607.075 582.967C606.745 579.388 608.892 576.719 612.237 576.411C615.582 576.102 617.979 578.274 618.316 581.93C618.338 582.164 618.356 582.358 618.335 582.556L609.116 583.406ZM612.391 578.083C610.368 578.27 609.129 579.718 609.011 581.847L616.207 581.183C615.742 579.108 614.297 577.907 612.391 578.083ZM626.652 587.242C623.267 587.554 620.669 585.323 620.339 581.744C620.009 578.165 622.156 575.496 625.54 575.184C627.99 574.958 630.131 576.055 630.958 578.215L629.184 578.967C628.503 577.539 627.254 576.752 625.698 576.896C623.364 577.111 622.082 578.955 622.323 581.561C622.563 584.167 624.16 585.746 626.494 585.531C628.05 585.387 629.173 584.382 629.581 582.853L631.424 583.272C630.968 585.55 629.063 587.02 626.652 587.242ZM641.545 573.905L643.49 573.725L644.565 585.395L642.932 585.545L642.597 583.615C641.863 585.016 640.382 585.976 638.554 586.145C636.026 586.378 634.111 584.75 633.863 582.066L633.182 574.676L635.127 574.496L635.754 581.304C635.951 583.443 637.113 584.552 638.863 584.391C640.886 584.204 642.352 582.657 642.165 580.634L641.545 573.905ZM653.352 572.62C653.624 572.595 653.9 572.609 654.176 572.623L654.351 574.529C653.92 574.529 653.492 574.569 652.986 574.615C651.041 574.794 649.611 576.299 649.79 578.244L650.4 584.857L648.455 585.036L647.379 573.367L649.013 573.216L649.348 575.147C650.082 573.745 651.562 572.785 653.352 572.62ZM656.44 570.805L656.239 568.627L658.418 568.426L658.619 570.605L656.44 570.805ZM657.791 584.175L656.715 572.506L658.66 572.327L659.735 583.996L657.791 584.175ZM669.433 573.021L665.738 573.361L666.354 580.052C666.476 581.374 667.053 581.674 668.259 581.563C668.842 581.509 669.345 581.423 670.179 581.111L670.347 582.939C669.587 583.206 668.855 583.352 668.116 583.42C665.899 583.624 664.628 582.604 664.442 580.581L663.793 573.54L661.498 573.752L661.344 572.079L663.639 571.868L663.663 568.727L665.297 568.577L665.583 571.689L669.279 571.348L669.433 573.021ZM680.131 570.347L682.154 570.161L678.814 582.865C678.321 584.754 677.305 586.495 675.438 586.668C673.337 586.861 672.19 585.476 672.063 583.683L673.785 583.211C673.829 584.109 674.145 584.982 675.273 584.878C676.012 584.81 676.471 584.258 676.851 583.281L670.212 571.262L672.352 571.065L677.573 580.9L680.131 570.347Z" fill="white"/>
<rect x="872.117" y="354" width="222" height="56" rx="28" transform="rotate(12.4962 872.117 354)" fill="#111111"/>
<rect x="872.497" y="354.596" width="221" height="55" rx="27.5" transform="rotate(12.4962 872.497 354.596)" stroke="#444444" stroke-opacity="0.5"/>
<path d="M939.71 398.052C940.901 398.996 941.394 400.385 941.039 401.987C940.506 404.39 938.405 405.565 935.659 404.956L929.1 403.502L932.312 389.01L938.681 390.422C941.35 391.013 942.728 392.919 942.213 395.246C941.892 396.695 940.998 397.657 939.71 398.052ZM937.987 392.108L933.83 391.187L932.849 395.611L937.006 396.532C938.837 396.938 939.913 396.416 940.242 394.929C940.572 393.442 939.817 392.514 937.987 392.108ZM935.591 403.1C937.574 403.54 938.743 402.959 939.098 401.357C939.453 399.755 938.639 398.735 936.656 398.295L932.461 397.365L931.396 402.171L935.591 403.1ZM952.583 406.946L953.002 407.039L952.63 408.717C952.546 408.739 952.232 408.709 951.965 408.65C950.554 408.337 950.092 407.715 950.282 406.316C949.181 407.313 947.478 407.775 945.762 407.395C943.55 406.905 942.329 405.194 942.776 403.173C943.385 400.427 946.198 400.37 948.524 400.525C950.537 400.651 951.287 400.698 951.498 399.744C951.727 398.714 950.841 397.838 949.315 397.5C947.98 397.204 946.557 397.489 945.384 398.269L944.472 396.787C946.009 395.807 947.81 395.446 949.755 395.877C952.386 396.46 953.713 398.235 953.198 400.561L951.989 406.015C951.871 406.548 952.049 406.828 952.583 406.946ZM946.345 405.844C948.252 406.267 950.226 405.304 950.573 403.74L950.962 401.986C950.474 402.198 949.763 402.16 948.462 402.072C946.801 401.984 945.064 401.879 944.692 403.557C944.43 404.739 945.049 405.557 946.345 405.844ZM959.834 410.514C956.516 409.779 954.722 406.86 955.5 403.352C956.278 399.843 959.137 397.956 962.454 398.691C964.857 399.224 966.561 400.922 966.69 403.231L964.77 403.406C964.558 401.838 963.608 400.708 962.083 400.369C959.794 399.862 958.011 401.228 957.445 403.783C956.879 406.338 957.918 408.329 960.206 408.836C961.732 409.174 963.108 408.559 963.963 407.228L965.591 408.189C964.461 410.219 962.199 411.038 959.834 410.514ZM975.322 413.746L972.391 407.295L970.32 408.517L969.449 412.445L967.542 412.022L970.923 396.767L972.83 397.19L970.81 406.305L977.553 402.238L979.993 402.779L974.051 406.303L977.687 414.27L975.322 413.746ZM981.336 409.718C981.075 411.981 982.173 413.704 984.347 414.186C986.216 414.6 987.436 414.15 988.24 413.409L989.351 414.895C988.267 415.815 986.492 416.422 984.013 415.873C980.314 415.053 978.774 412.071 979.526 408.677C980.304 405.168 983.163 403.281 986.443 404.008C989.722 404.735 991.343 407.534 990.548 411.119C990.497 411.348 990.455 411.539 990.375 411.721L981.336 409.718ZM986.079 405.648C984.096 405.208 982.474 406.209 981.712 408.201L988.768 409.764C988.957 407.646 987.948 406.062 986.079 405.648ZM1000.63 407.152C1003.11 407.701 1004.44 409.836 1003.85 412.468L1002.25 419.714L1000.34 419.291L1001.82 412.617C1002.28 410.519 1001.52 409.109 999.8 408.729C997.817 408.289 995.949 409.315 995.51 411.299L994.047 417.896L992.141 417.474L994.676 406.033L996.278 406.388L996.008 408.328C997.134 407.218 998.837 406.755 1000.63 407.152ZM1017.34 407.054L1019.24 407.476L1015.86 422.731L1014.26 422.376L1014.53 420.435C1013.32 421.567 1011.7 422.009 1010.02 421.637C1006.97 420.961 1005.47 418.186 1006.26 414.602C1007.04 411.093 1009.71 409.164 1012.64 409.814C1014.28 410.178 1015.51 411.13 1016.13 412.507L1017.34 407.054ZM1010.85 420.06C1013.03 420.542 1014.81 419.177 1015.38 416.622C1015.94 414.066 1014.9 412.076 1012.73 411.594C1010.55 411.112 1008.77 412.477 1008.21 415.033C1007.64 417.588 1008.68 419.579 1010.85 420.06Z" fill="white"/>
<g opacity="0.8">
<rect x="725.682" y="513.311" width="211" height="55" rx="27.5" transform="rotate(-29.7272 725.682 513.311)" fill="#111111"/>
<rect x="725.682" y="513.311" width="211" height="55" rx="27.5" transform="rotate(-29.7272 725.682 513.311)" stroke="#444444"/>
<path d="M797.683 495.984C801.719 493.679 805.411 494.945 807.639 498.846C809.808 502.645 808.978 506.627 805.043 508.874L800.464 511.489L793.103 498.599L797.683 495.984ZM804.152 507.314C806.934 505.725 807.526 502.823 805.841 499.872C804.156 496.921 801.355 495.956 798.574 497.544L795.758 499.152L801.337 508.921L804.152 507.314ZM812.387 498.653C813.714 500.504 815.686 501.043 817.619 499.939C819.281 498.99 819.883 497.837 819.98 496.747L821.801 497.101C821.617 498.511 820.71 500.153 818.505 501.412C815.215 503.291 812.071 502.117 810.347 499.098C808.565 495.978 809.414 492.659 812.331 490.993C815.248 489.327 818.33 490.312 820.15 493.5C820.267 493.704 820.363 493.874 820.426 494.063L812.387 498.653ZM813.164 492.452C811.4 493.459 810.871 495.29 811.646 497.277L817.922 493.694C816.638 491.997 814.826 491.503 813.164 492.452ZM826.404 483.182L828.202 482.156L829.942 494.657L828.042 495.741L818.161 487.889L820.026 486.824L827.999 493.382L826.404 483.182ZM841.572 488.24C837.875 490.352 833.975 489.115 831.689 485.112C829.462 481.211 830.422 477.064 834.018 475.011C837.715 472.9 841.615 474.136 843.901 478.139C846.128 482.04 845.168 486.187 841.572 488.24ZM840.681 486.68C843.293 485.189 843.846 482.219 842.103 479.166C840.36 476.113 837.521 475.08 834.909 476.571C832.297 478.063 831.744 481.033 833.487 484.086C835.23 487.139 838.069 488.171 840.681 486.68ZM849.543 469.744C852.257 468.195 855.236 469.237 857.057 472.426C858.839 475.547 858.16 478.768 855.548 480.26C854.089 481.093 852.539 481.214 851.158 480.607L853.928 485.458L852.232 486.427L844.484 472.858L845.909 472.045L847.013 473.663C847.149 472.011 848.051 470.597 849.543 469.744ZM854.289 479C856.222 477.896 856.625 475.687 855.327 473.414C854.029 471.141 851.922 470.365 849.988 471.469C848.055 472.573 847.652 474.783 848.95 477.055C850.248 479.328 852.355 480.104 854.289 479ZM865.86 474.371C864.13 475.359 862.395 475.63 860.676 475.218L860.981 473.469C862.314 473.833 863.685 473.634 865.042 472.86C866.5 472.027 867.058 471.034 866.554 470.152C866.109 469.371 865.266 469.313 863.061 469.942C860.028 470.775 858.579 470.522 857.707 468.996C856.7 467.232 857.583 465.154 859.889 463.836C861.246 463.062 862.821 462.747 864.337 462.961L864.075 464.865C862.922 464.579 861.759 464.748 860.674 465.368C859.385 466.104 858.827 467.097 859.292 467.911C859.699 468.623 860.542 468.682 862.645 468.111C865.785 467.307 867.233 467.56 868.105 469.086C869.151 470.918 868.269 472.996 865.86 474.371Z" fill="white"/>
</g>
<rect x="574.358" y="433.911" width="176" height="55" rx="27.5" transform="rotate(21.1287 574.358 433.911)" fill="#111111" fill-opacity="0.4"/>
<rect x="574.358" y="433.911" width="176" height="55" rx="27.5" transform="rotate(21.1287 574.358 433.911)" stroke="#444444"/>
<path d="M634.051 479.123C636.965 480.25 638.19 482.608 637.204 485.158C636.219 487.709 633.727 488.63 630.812 487.504L626.986 486.025L624.874 491.491L622.979 490.759L628.33 476.913L634.051 479.123ZM631.255 485.707C633.296 486.495 634.64 486.052 635.273 484.412C635.907 482.772 635.211 481.54 633.17 480.751L629.563 479.358L627.648 484.313L631.255 485.707ZM638.959 494.924L646.537 497.852L645.861 499.601L636.388 495.94L641.739 482.094L643.633 482.827L638.959 494.924ZM668.884 492.585L663.533 506.43L661.711 505.726L666.287 493.885L657.157 503.966L654.971 503.121L654.992 489.52L650.416 501.361L648.594 500.657L653.945 486.811L656.969 487.98L656.917 501.445L665.896 491.43L668.884 492.585Z" fill="white"/>
<g opacity="0.4" clip-path="url(#clip0_2013_11255)">
<path d="M935.451 491.038C923.724 478.718 902.454 488.455 909.462 507.187C916.47 525.919 950.409 531.017 950.409 531.017C950.409 531.017 972.666 504.895 965.658 486.163C958.65 467.431 936.212 474.046 935.451 491.038Z" fill="#B1FFBC" stroke="#B1FFBC" stroke-width="2" stroke-linecap="round" stroke-linejoin="round"/>
</g>
<g opacity="0.8">
<g clip-path="url(#clip1_2013_11255)">
<path d="M842.071 516.676L749.677 554.929L787.93 647.324L880.324 609.071L842.071 516.676Z" fill="#1A1A1A"/>
<path d="M789.627 639.724L786.289 631.661L791.155 629.646L791.514 630.512L787.624 632.123L788.752 634.847L792.39 633.341L792.749 634.207L789.111 635.713L790.245 638.454L794.198 636.817L794.557 637.683L789.627 639.724ZM795.365 653.583L792.027 645.52L793.003 645.116L795.983 652.313L799.731 650.761L800.09 651.627L795.365 653.583ZM801.103 667.442L797.765 659.379L802.631 657.364L802.99 658.23L799.1 659.841L800.228 662.565L803.866 661.059L804.225 661.925L800.586 663.432L801.721 666.172L805.674 664.535L806.033 665.402L801.103 667.442ZM803.833 673.101L809.038 678.898L809.132 678.859L808.716 671.08L809.739 670.656L810.117 679.945L809.109 680.363L802.81 673.525L803.833 673.101ZM812.91 695.024L811.886 695.448L811.509 686.158L812.516 685.741L818.816 692.579L817.792 693.002L812.572 687.212L812.509 687.238L812.91 695.024ZM811.984 691.718L816.11 690.009L816.469 690.875L812.342 692.584L811.984 691.718ZM814.896 702.005L814.538 701.139L820.585 698.635L820.944 699.501L818.408 700.551L821.388 707.748L820.412 708.153L817.432 700.955L814.896 702.005ZM824.055 722.879L820.717 714.816L825.583 712.801L825.942 713.667L822.052 715.277L823.18 718.002L826.818 716.496L827.176 717.362L823.538 718.868L824.673 721.609L828.626 719.972L828.984 720.838L824.055 722.879ZM829.793 736.738L826.454 728.675L831.321 726.66L831.68 727.526L827.79 729.137L828.918 731.861L832.556 730.355L832.914 731.221L829.276 732.727L830.411 735.468L834.364 733.831L834.722 734.697L829.793 736.738ZM841.269 764.456L837.93 756.393L840.655 755.265C841.288 755.003 841.852 754.903 842.348 754.965C842.846 755.024 843.272 755.206 843.626 755.511C843.98 755.816 844.255 756.207 844.452 756.682C844.648 757.157 844.73 757.629 844.697 758.098C844.666 758.566 844.497 758.998 844.191 759.395C843.884 759.79 843.417 760.117 842.79 760.377L840.837 761.185L840.478 760.319L842.4 759.524C842.833 759.344 843.15 759.126 843.35 758.867C843.551 758.609 843.657 758.328 843.67 758.025C843.684 757.717 843.625 757.402 843.491 757.079C843.357 756.757 843.177 756.493 842.951 756.288C842.728 756.083 842.453 755.962 842.129 755.928C841.803 755.891 841.42 755.963 840.982 756.144L839.265 756.855L842.245 764.052L841.269 764.456ZM847.007 778.316L843.668 770.252L848.535 768.237L848.893 769.104L845.003 770.714L846.131 773.439L849.769 771.932L850.128 772.799L846.49 774.305L847.625 777.045L851.578 775.409L851.936 776.275L847.007 778.316ZM852.745 792.175L849.406 784.111L852.131 782.983C852.761 782.722 853.322 782.616 853.816 782.664C854.308 782.709 854.728 782.878 855.077 783.17C855.426 783.462 855.698 783.846 855.895 784.321C856.092 784.796 856.169 785.258 856.127 785.706C856.085 786.154 855.906 786.566 855.592 786.942C855.276 787.316 854.806 787.632 854.181 787.89L851.976 788.803L851.611 787.921L853.784 787.022C854.215 786.843 854.535 786.637 854.746 786.402C854.958 786.166 855.076 785.909 855.099 785.629C855.123 785.345 855.068 785.042 854.934 784.719C854.801 784.396 854.623 784.139 854.403 783.948C854.182 783.756 853.912 783.65 853.592 783.628C853.272 783.604 852.894 783.682 852.458 783.862L850.741 784.573L853.721 791.771L852.745 792.175ZM855.041 786.981L858.525 789.782L857.391 790.251L853.938 787.438L855.041 786.981ZM855.062 799.019L854.703 798.153L860.751 795.649L861.109 796.515L858.574 797.565L861.554 804.762L860.577 805.167L857.597 797.969L855.062 799.019ZM866.126 812.02C865.914 811.64 865.594 811.41 865.167 811.329C864.74 811.247 864.282 811.308 863.794 811.51C863.437 811.657 863.148 811.845 862.928 812.071C862.711 812.296 862.569 812.541 862.504 812.805C862.44 813.068 862.462 813.328 862.568 813.585C862.657 813.8 862.785 813.964 862.952 814.077C863.12 814.185 863.306 814.257 863.511 814.292C863.715 814.325 863.92 814.337 864.126 814.328C864.331 814.318 864.516 814.301 864.682 814.278L865.592 814.16C865.825 814.128 866.09 814.107 866.387 814.098C866.687 814.087 866.99 814.117 867.296 814.187C867.603 814.254 867.888 814.385 868.151 814.581C868.413 814.777 868.623 815.063 868.779 815.441C868.96 815.877 869.008 816.318 868.926 816.764C868.846 817.21 868.631 817.626 868.281 818.014C867.933 818.4 867.45 818.722 866.831 818.979C866.253 819.218 865.715 819.331 865.215 819.32C864.718 819.308 864.279 819.185 863.9 818.951C863.523 818.717 863.227 818.386 863.013 817.958L864.021 817.54C864.174 817.834 864.38 818.044 864.641 818.169C864.904 818.291 865.193 818.343 865.509 818.326C865.826 818.306 866.145 818.229 866.465 818.097C866.838 817.942 867.148 817.743 867.394 817.5C867.64 817.254 867.804 816.986 867.887 816.696C867.969 816.404 867.949 816.111 867.828 815.817C867.717 815.549 867.552 815.362 867.333 815.256C867.114 815.15 866.86 815.095 866.573 815.091C866.285 815.087 865.983 815.105 865.667 815.143L864.558 815.271C863.853 815.35 863.247 815.298 862.74 815.114C862.234 814.931 861.868 814.567 861.643 814.024C861.456 813.572 861.415 813.128 861.52 812.691C861.627 812.25 861.849 811.851 862.186 811.493C862.525 811.131 862.952 810.843 863.467 810.63C863.986 810.415 864.487 810.317 864.968 810.336C865.449 810.353 865.873 810.472 866.242 810.694C866.613 810.916 866.89 811.227 867.071 811.629L866.126 812.02Z" fill="white"/>
<path d="M832.665 742.338L836.133 744.832L836.196 744.806L836.886 740.591L838.035 740.115L837.169 745.196L841.374 748.178L840.224 748.654L836.782 746.223L836.719 746.249L836.003 750.402L834.854 750.878L835.783 745.77L831.515 742.814L832.665 742.338Z" fill="#B1FFBC"/>
<path d="M786.964 579.34L785.325 572.461L807.069 563.459L796.358 555.423L770.337 566.196L781.938 614.296L806.979 603.929L812.099 589.339L791.466 597.881L789.555 589.981L786.964 579.34Z" fill="white"/>
<path d="M797.26 555.05L819.142 571.466L807.881 603.555L821.441 597.941L831.934 566.207L809.53 549.97L797.26 555.05Z" fill="#B1FFBC"/>
<path d="M794.106 576.109L813.325 568.152L818.24 571.84L815.47 579.734L796.94 587.406L794.106 576.109Z" fill="#B1FFBC"/>
<path d="M828.558 578.538L842.697 589.136L855.984 583.635L832.503 566.619L828.558 578.538Z" fill="white"/>
<path d="M841.685 536.722L829.65 541.704L823.425 559.218L832.154 565.544L841.685 536.722Z" fill="white"/>
<path d="M842.071 516.676L749.677 554.929L787.93 647.324L880.324 609.071L842.071 516.676Z" fill="#1A1A1A"/>
<path d="M790.628 583.595L788.989 576.716L810.734 567.714L800.023 559.678L774.002 570.451L785.603 618.55L810.643 608.183L815.763 593.593L795.13 602.135L793.22 594.236L790.628 583.595Z" fill="white"/>
<path d="M800.925 559.305L822.806 575.72L811.545 607.809L825.105 602.195L835.599 570.462L813.194 554.225L800.925 559.305Z" fill="#B1FFBC"/>
<path d="M797.77 580.363L816.989 572.406L821.904 576.094L819.134 583.988L800.604 591.66L797.77 580.363Z" fill="#B1FFBC"/>
<path d="M832.222 582.793L846.361 593.391L859.649 587.89L836.168 570.874L832.222 582.793Z" fill="white"/>
<path d="M845.349 540.977L833.315 545.959L827.089 563.472L835.819 569.798L845.349 540.977Z" fill="white"/>
</g>
</g>
<rect x="865.074" y="506.639" width="190" height="55" rx="27.5" transform="rotate(19.5837 865.074 506.639)" fill="#111111" fill-opacity="0.4"/>
<rect x="865.074" y="506.639" width="190" height="55" rx="27.5" transform="rotate(19.5837 865.074 506.639)" stroke="#444444"/>
<path d="M920.665 564.303C916.654 562.876 915.049 559.112 916.594 554.769C918.099 550.537 921.87 548.562 925.771 549.95C929.783 551.377 931.388 555.14 929.843 559.483C928.337 563.715 924.566 565.691 920.665 564.303ZM921.267 562.61C924.101 563.618 926.714 562.101 927.892 558.789C929.071 555.477 928.003 552.651 925.169 551.643C922.335 550.634 919.723 552.151 918.544 555.463C917.366 558.776 918.433 561.602 921.267 562.61ZM939.847 560.264L936.351 559.02L934.099 565.351C933.654 566.602 934.051 567.116 935.192 567.522C935.744 567.719 936.235 567.852 937.124 567.919L936.508 569.649C935.707 569.571 934.981 569.396 934.282 569.147C932.184 568.401 931.46 566.941 932.141 565.027L934.511 558.366L932.339 557.593L932.902 556.011L935.074 556.783L936.416 553.944L937.961 554.494L936.914 557.438L940.41 558.682L939.847 560.264ZM948.94 561.509C951.332 562.36 952.386 564.642 951.483 567.182L948.995 574.174L947.155 573.52L949.446 567.079C950.166 565.055 949.579 563.561 947.922 562.971C946.045 562.304 944.065 563.092 943.384 565.005L941.119 571.372L939.279 570.718L944.516 555.997L946.357 556.651L944.471 561.951C945.71 561.148 947.321 560.933 948.94 561.509ZM955.276 570.853C954.738 573.066 955.615 574.912 957.713 575.659C959.516 576.3 960.782 576.004 961.672 575.367L962.591 576.98C961.402 577.759 959.566 578.142 957.173 577.291C953.604 576.021 952.444 572.872 953.609 569.597C954.813 566.211 957.883 564.691 961.048 565.817C964.213 566.943 965.476 569.921 964.245 573.38C964.166 573.601 964.101 573.785 963.999 573.956L955.276 570.853ZM960.485 567.399C958.572 566.719 956.838 567.512 955.837 569.394L962.645 571.816C963.095 569.737 962.289 568.041 960.485 567.399ZM974.702 570.674C974.96 570.766 975.204 570.894 975.449 571.023L974.807 572.826C974.416 572.645 974.011 572.501 973.532 572.331C971.692 571.677 969.762 572.441 969.107 574.281L966.881 580.538L965.041 579.883L968.969 568.842L970.515 569.392L970.007 571.284C971.262 570.321 973.009 570.072 974.702 570.674Z" fill="white"/>
<g opacity="0.64">
<rect x="628.592" y="412.716" width="224" height="55" rx="27.5" transform="rotate(-11.8827 628.592 412.716)" fill="#111111"/>
<rect x="628.592" y="412.716" width="224" height="55" rx="27.5" transform="rotate(-11.8827 628.592 412.716)" stroke="#444444"/>
<path d="M707.519 419.093L699.644 420.75L700.569 425.146L706.724 423.851L707.094 425.609L700.939 426.904L702.323 433.479L700.335 433.897L697.279 419.372L707.141 417.297L707.519 419.093ZM718.105 418.183L720.016 417.781L722.429 429.248L720.824 429.586L720.269 427.707C719.701 429.184 718.341 430.308 716.545 430.686C714.06 431.209 711.97 429.813 711.415 427.175L709.887 419.912L711.798 419.51L713.205 426.199C713.648 428.302 714.929 429.27 716.649 428.908C718.637 428.489 719.915 426.784 719.497 424.796L718.105 418.183ZM726.252 428.444L723.035 413.154L724.946 412.752L728.163 428.042L726.252 428.444ZM731.986 427.237L728.768 411.947L730.68 411.545L733.897 426.835L731.986 427.237ZM741.429 425.45C739.48 425.86 737.746 425.586 736.235 424.667L737.062 423.096C738.219 423.85 739.585 424.082 741.114 423.76C742.757 423.414 743.592 422.64 743.383 421.646C743.198 420.767 742.414 420.453 740.122 420.376C736.98 420.239 735.678 419.555 735.316 417.835C734.898 415.847 736.375 414.139 738.974 413.592C740.503 413.27 742.099 413.454 743.477 414.122L742.644 415.854C741.634 415.228 740.475 415.033 739.252 415.29C737.799 415.596 736.964 416.37 737.157 417.288C737.326 418.09 738.111 418.404 740.287 418.505C743.522 418.703 744.824 419.387 745.186 421.107C745.62 423.171 744.143 424.879 741.429 425.45ZM752.777 412.604L749.146 413.368L750.529 419.943C750.803 421.242 751.41 421.474 752.595 421.224C753.169 421.104 753.658 420.961 754.45 420.555L754.828 422.351C754.104 422.703 753.394 422.932 752.668 423.085C750.489 423.544 749.109 422.676 748.691 420.689L747.235 413.77L744.979 414.244L744.634 412.601L746.889 412.126L746.551 409.004L748.157 408.666L748.8 411.724L752.432 410.96L752.777 412.604ZM766.111 418.3L766.532 418.212L766.886 419.894C766.817 419.948 766.519 420.051 766.252 420.107C764.837 420.405 764.159 420.028 763.755 418.676C763.164 420.038 761.804 421.163 760.083 421.525C757.866 421.991 756.048 420.937 755.621 418.911C755.042 416.159 757.581 414.946 759.764 414.127C761.649 413.411 762.352 413.144 762.15 412.188C761.933 411.156 760.765 410.723 759.235 411.045C757.898 411.327 756.719 412.174 755.972 413.368L754.53 412.395C755.526 410.868 757.017 409.796 758.966 409.385C761.604 408.83 763.545 409.899 764.036 412.231L765.186 417.697C765.298 418.232 765.576 418.413 766.111 418.3ZM759.975 419.871C761.886 419.469 763.287 417.777 762.957 416.21L762.587 414.451C762.231 414.846 761.567 415.105 760.346 415.562C758.796 416.167 757.171 416.789 757.525 418.471C757.774 419.656 758.675 420.145 759.975 419.871ZM774.189 418.557C770.863 419.257 768.024 417.339 767.284 413.822C766.545 410.306 768.37 407.407 771.695 406.707C774.103 406.2 776.356 407.043 777.427 409.094L775.751 410.045C774.91 408.705 773.578 408.067 772.049 408.389C769.756 408.871 768.695 410.851 769.234 413.412C769.773 415.973 771.541 417.357 773.835 416.875C775.364 416.553 776.364 415.425 776.593 413.859L778.472 414.063C778.281 416.378 776.559 418.058 774.189 418.557ZM789.63 415.108L784.297 410.442L782.914 412.41L783.743 416.347L781.832 416.749L778.614 401.459L780.526 401.057L782.448 410.193L786.911 403.705L789.357 403.19L785.399 408.853L792 414.609L789.63 415.108Z" fill="white"/>
</g>
</g>
<g opacity="0.64">
<path d="M1966.49 53.0313C1309.27 -575.895 1401.65 621.615 634.037 -135.576" stroke="#E5EAE2" stroke-opacity="0.2" stroke-width="2" stroke-linejoin="round" stroke-dasharray="10 10"/>
<g opacity="0.32">
<rect x="-0.5" y="0.5" width="39" height="39" rx="19.5" transform="matrix(-1 0 0 1 879.722 28)" fill="#B1FFBC" fill-opacity="0.32"/>
<rect x="-0.5" y="0.5" width="39" height="39" rx="19.5" transform="matrix(-1 0 0 1 879.722 28)" stroke="#8CEB9A"/>
<circle cx="10" cy="10" r="9.5" transform="matrix(-1 0 0 1 870.722 38)" fill="#B1FFBC" stroke="#8CEB9A"/>
</g>
<g opacity="0.32">
<rect x="-0.5" y="0.5" width="39" height="39" rx="19.5" transform="matrix(-1 0 0 1 1226.72 76)" fill="#B1FFBC" fill-opacity="0.32"/>
<rect x="-0.5" y="0.5" width="39" height="39" rx="19.5" transform="matrix(-1 0 0 1 1226.72 76)" stroke="#8CEB9A"/>
<circle cx="10" cy="10" r="9.5" transform="matrix(-1 0 0 1 1217.72 86)" fill="#B1FFBC" stroke="#8CEB9A"/>
</g>
</g>
<defs>
<filter id="filter0_f_2013_11255" x="-117.839" y="78.314" width="1575.67" height="1502.61" filterUnits="userSpaceOnUse" color-interpolation-filters="sRGB">
<feFlood flood-opacity="0" result="BackgroundImageFix"/>
<feBlend mode="normal" in="SourceGraphic" in2="BackgroundImageFix" result="shape"/>
<feGaussianBlur stdDeviation="250" result="effect1_foregroundBlur_2013_11255"/>
</filter>
<clipPath id="clip0_2013_11255">
<rect width="80" height="80" fill="white" transform="translate(889 481.032) rotate(-20.5122)"/>
</clipPath>
<clipPath id="clip1_2013_11255">
<rect x="749.677" y="554.929" width="100" height="100" rx="50" transform="rotate(-22.4905 749.677 554.929)" fill="white"/>
</clipPath>
</defs>
</svg>
