<svg width="256" height="690" viewBox="0 0 256 690" fill="none" xmlns="http://www.w3.org/2000/svg">
<path d="M0 16C0 7.16345 7.16344 0 16 0H61.8394C70.4885 0 77.5 7.01147 77.5 15.6606C77.5 24.3097 84.5115 31.3211 93.1606 31.3211H240C248.837 31.3211 256 38.4846 256 47.3211V674C256 682.837 248.837 690 240 690H16C7.16344 690 0 682.837 0 674V16Z" fill="#2C2C2C"/>
<path d="M16 0.5H61.8398C70.2125 0.500227 76.9998 7.28753 77 15.6602C77 24.5853 84.2351 31.8211 93.1602 31.8213H240C248.56 31.8213 255.5 38.7609 255.5 47.3213V674C255.5 682.56 248.56 689.5 240 689.5H16C7.43959 689.5 0.5 682.56 0.5 674V16C0.500002 7.43959 7.43959 0.5 16 0.5Z" stroke="#444444" stroke-opacity="0.5"/>
</svg>
