<svg width="40" height="40" viewBox="0 0 40 40" fill="none" xmlns="http://www.w3.org/2000/svg">
<path opacity="0.3" d="M6.6665 13.3333H33.3332V31.6666H6.6665V13.3333Z" fill="white"/>
<path d="M33.3335 9.99992H26.6668V6.66659C26.6668 4.81659 25.1835 3.33325 23.3335 3.33325H16.6668C14.8168 3.33325 13.3335 4.81659 13.3335 6.66659V9.99992H6.66683C4.81683 9.99992 3.35016 11.4833 3.35016 13.3333L3.3335 31.6666C3.3335 33.5166 4.81683 34.9999 6.66683 34.9999H33.3335C35.1835 34.9999 36.6668 33.5166 36.6668 31.6666V13.3333C36.6668 11.4833 35.1835 9.99992 33.3335 9.99992ZM16.6668 6.66659H23.3335V9.99992H16.6668V6.66659ZM33.3335 31.6666H6.66683V13.3333H33.3335V31.6666Z" fill="white"/>
</svg>
