<svg width="56" height="56" viewBox="0 0 56 56" fill="none" xmlns="http://www.w3.org/2000/svg">
<path d="M56 0H0V56H56V0Z" fill="#1A1A1A"/>
<path d="M15.0479 23.6044L15.6735 19.6942H28.8527L25.0322 13.2422H9.26089L4.95972 40.6138H20.1366L25.911 34.1618H13.4057L14.1095 29.6654L15.0479 23.6044Z" fill="white"/>
<path d="M25.579 13.2422L33.384 26.423L20.6833 40.6138H28.9023L41.1294 26.4427L33.0154 13.2422H25.579Z" fill="#B1FFBC"/>
<path d="M19.4354 23.4624H31.0839L32.8372 26.4232L29.7129 29.9144H18.4817L19.4354 23.4624Z" fill="#B1FFBC"/>
<path d="M36.7407 32.0995L41.7862 40.6121H49.8395L41.3356 26.7778L36.7407 32.0995Z" fill="white"/>
<path d="M52.4908 13.2754H45.1965L38.2239 21.0033L41.3854 26.1461L52.4908 13.2754Z" fill="white"/>
</svg>
