<svg width="40" height="40" viewBox="0 0 40 40" fill="none" xmlns="http://www.w3.org/2000/svg">
<path d="M16.9066 11.0466C18.2166 7.77831 18.8733 6.14331 20 6.14331C21.1266 6.14331 21.7833 7.77664 23.0933 11.0466L23.155 11.1966C23.895 13.045 24.265 13.9683 25.0216 14.53C25.775 15.09 26.7666 15.18 28.7483 15.3566L29.105 15.3883C32.3483 15.6783 33.9716 15.8233 34.3166 16.855C34.665 17.8883 33.46 18.9833 31.05 21.1733L30.2483 21.9066C29.0283 23.015 28.4183 23.57 28.135 24.2966C28.0814 24.4325 28.0369 24.5717 28.0016 24.7133C27.8166 25.47 27.995 26.275 28.3516 27.8833L28.4633 28.3833C29.1183 31.3416 29.4466 32.82 28.875 33.4583C28.6607 33.6964 28.3824 33.8676 28.0733 33.9516C27.2466 34.1783 26.0733 33.2216 23.7233 31.3083C22.1816 30.0516 21.41 29.4233 20.525 29.2816C20.1772 29.2262 19.8228 29.2262 19.475 29.2816C18.5883 29.4233 17.8183 30.0516 16.275 31.3083C13.9283 33.2216 12.7533 34.1783 11.9266 33.9516C11.6182 33.8674 11.3404 33.6961 11.1266 33.4583C10.5533 32.82 10.8816 31.3416 11.5366 28.385L11.6483 27.8833C12.005 26.2733 12.1833 25.47 11.9983 24.7116C11.963 24.57 11.9185 24.4308 11.865 24.295C11.5816 23.57 10.9716 23.015 9.75163 21.905L8.9483 21.1733C6.53996 18.9833 5.33496 17.8866 5.68163 16.8566C6.02996 15.8233 7.65163 15.6783 10.895 15.3883L11.2516 15.355C13.235 15.1783 14.225 15.09 14.98 14.5283C15.735 13.9666 16.105 13.045 16.8466 11.1983L16.9066 11.0466Z" fill="white" fill-opacity="0.25" stroke="white" stroke-width="2"/>
</svg>
