<svg width="100" height="100" viewBox="0 0 100 100" fill="none" xmlns="http://www.w3.org/2000/svg">
<g clip-path="url(#clip0_334_16639)">
<path d="M44.8917 92.075C47.9059 87.1943 52.4137 83.4156 57.7458 81.3C61.4125 79.5375 65.2458 78.1417 69.1875 77.1376C73.7708 75.6251 78.55 74.7834 83.375 74.6417C85.2083 74.35 85.0417 71.9376 82.875 71.7709C78.0744 71.1467 73.2015 71.3723 68.4792 72.4376C65.7458 72.9653 63.0833 73.7431 60.4917 74.7709C57.8716 75.8034 55.3629 77.0989 53.0042 78.6375C47.859 81.5956 43.8032 86.132 41.4375 91.5751C40.8542 93.7417 44.0167 93.575 44.8917 92.075Z" fill="#EEF3EE"/>
<path d="M76.925 59.3749C68.4263 55.9705 59.4377 53.9477 50.3 53.3832V53.1749C54.1655 45.0933 57.4597 36.7506 60.1583 28.2082C62.5559 21.6093 62.467 14.363 59.9083 7.82488C57.9958 3.90822 59.075 3.90822 57.2042 2.20405C55.2076 0.580291 52.6541 -0.196085 50.0917 0.0415518C47.1135 0.281658 44.1777 0.897662 41.3542 1.87488C35.8786 3.88176 30.6558 6.52042 25.7917 9.73738C20.8892 12.7184 16.2415 16.0993 11.8958 19.8457C11.6409 20.1163 11.499 20.474 11.499 20.8457C11.499 21.2174 11.6409 21.5751 11.8958 21.8457C12.1614 22.1103 12.521 22.2589 12.8958 22.2589C13.2707 22.2589 13.6303 22.1103 13.8958 21.8457C18.2273 18.4792 22.818 15.4601 27.625 12.8166C32.3068 9.99205 37.3051 7.72921 42.5167 6.07488C45.0569 5.28987 47.6859 4.8279 50.3417 4.69989C51.6458 4.58739 52.95 4.95822 54 5.74155C54.25 5.74155 54 6.28322 54 6.57488C53.8333 7.10544 53.5972 7.60544 53.2917 8.07488C52.6452 9.02032 51.922 9.91083 51.1292 10.7374C46.8517 13.9739 42.1829 16.6576 37.2333 18.7249C26.875 23.7166 14.975 28.7082 14.4333 28.8332C13.5952 29.0155 12.7483 29.1546 11.8958 29.2499H10.4375C10.1042 29.2499 10.4375 28.2916 10.7708 27.2499C10.8579 27.062 10.8969 26.8555 10.8844 26.6489C10.8718 26.4422 10.8082 26.2419 10.6992 26.066C10.5901 25.89 10.4391 25.7439 10.2596 25.6407C10.0801 25.5375 9.87778 25.4805 9.67083 25.4749C9.42195 25.4655 9.17593 25.5307 8.96435 25.6621C8.75278 25.7935 8.58527 25.9851 8.48333 26.2124C7.92622 27.2785 7.63525 28.4636 7.63525 29.6665C7.63525 30.8695 7.92622 32.0546 8.48333 33.1207C11.2603 38.9714 15.7429 43.8447 21.3417 47.0999C28.6911 51.5362 36.7164 54.741 45.1 56.5874C40.396 64.9386 36.9067 73.9178 34.7375 83.2541C33.4458 89.7041 34.0292 95.2791 36.8625 97.9832C37.9083 98.7769 39.1014 99.3551 40.3724 99.6841C41.6434 100.013 42.9671 100.086 44.2667 99.8999C52.401 98.7408 60.2962 96.2817 67.65 92.6166C75.0841 89.3533 82.0734 85.1586 88.45 80.1332C91.45 77.4291 92.6125 74.8082 92.325 73.1457C91.4083 68.0707 85.5792 62.9916 76.925 59.3749ZM23.0917 44.4374C17.9007 41.5758 13.6829 37.2289 10.9792 31.9541C12.2569 32.1013 13.5333 32.1013 14.8083 31.9541C24.4205 28.8067 33.8395 25.0975 43.0167 20.8457C47.1915 19.1253 51.0891 16.7974 54.5833 13.9374C55.8083 12.6999 56.8583 11.2999 57.7083 9.77905C59.225 13.9249 59.4708 18.4291 58.4125 22.7166C55.7809 32.6194 52.0406 42.1939 47.2625 51.2582C46.9708 51.9249 46.7208 52.5082 46.5542 53.0082C38.3119 51.4683 30.3863 48.572 23.0917 44.4374ZM84.4958 77.1374C77.0398 82.6368 68.8991 87.1414 60.2792 90.5374C55.387 92.6456 50.2624 94.1673 45.0125 95.0707C43.3587 95.5071 41.604 95.3447 40.0583 94.6124C38.725 93.8624 38.6 91.8249 38.5167 89.7457C38.5482 86.4278 39.0104 83.128 39.8917 79.9291C41.8486 72.4151 44.6396 65.1436 48.2125 58.2499L48.8375 57.1249C57.8583 57.7707 66.7125 59.8749 75.05 63.3666C79.9346 64.9643 84.1594 68.1219 87.075 72.354C87.5333 72.729 87.8708 74.3957 84.4958 77.1374Z" fill="#EEF3EE"/>
</g>
<defs>
<clipPath id="clip0_334_16639">
<rect width="100" height="100" fill="white"/>
</clipPath>
</defs>
</svg>
