<svg width="40" height="40" viewBox="0 0 40 40" fill="none" xmlns="http://www.w3.org/2000/svg">
<path d="M13.1253 3.81998C13.1059 3.8266 13.0878 3.83677 13.072 3.84998C11.4791 4.96309 10.1785 6.44446 9.28101 8.1681C8.3835 9.89175 7.91556 11.8067 7.917 13.75C7.91651 15.881 8.47959 17.9742 9.54912 19.8173C10.6187 21.6605 12.1566 23.188 14.007 24.245C14.957 24.79 15.6437 25.8366 15.5753 27.0483V27.0516L15.047 37.1483C15.0298 37.4794 14.8817 37.7901 14.6354 38.012C14.3891 38.2339 14.0647 38.3489 13.7337 38.3316C13.4026 38.3144 13.0919 38.1664 12.87 37.9201C12.6481 37.6738 12.5331 37.3494 12.5503 37.0183L13.0787 26.915V26.9083C13.0887 26.7583 13.0003 26.55 12.7653 26.415C10.5326 25.1392 8.67694 23.2958 7.38643 21.0716C6.09592 18.8474 5.41648 16.3215 5.417 13.75C5.41537 11.4048 5.98 9.09385 7.06291 7.01364C8.14581 4.93343 9.71497 3.14544 11.637 1.80164C12.049 1.50642 12.5387 1.33889 13.0451 1.31993C13.5516 1.30096 14.0524 1.43139 14.4853 1.69498C15.292 2.18164 15.8337 3.08664 15.8337 4.12831V11.985C15.8336 12.0562 15.8519 12.1262 15.8866 12.1883C15.9213 12.2505 15.9714 12.3027 16.032 12.34L19.782 14.6483C19.9153 14.7316 20.0853 14.7316 20.2187 14.6483L23.9687 12.34C24.0293 12.3027 24.0794 12.2505 24.1141 12.1883C24.1488 12.1262 24.167 12.0562 24.167 11.985V4.12998C24.167 3.08664 24.7087 2.18164 25.517 1.69498C25.9497 1.43174 26.4502 1.30151 26.9564 1.32048C27.4625 1.33944 27.9519 1.50677 28.3637 1.80164C30.2859 3.1456 31.8552 4.93386 32.9381 7.01438C34.0211 9.0949 34.5856 11.4062 34.5837 13.7516C34.5837 16.323 33.9039 18.8487 32.6131 21.0726C31.3223 23.2965 29.4664 25.1396 27.2337 26.415C27.0003 26.55 26.912 26.7583 26.9203 26.9083V26.915L27.4503 37.0183C27.4589 37.1822 27.435 37.3463 27.3802 37.501C27.3253 37.6557 27.2405 37.7981 27.1307 37.9201C27.0208 38.042 26.888 38.1411 26.7398 38.2117C26.5916 38.2824 26.4309 38.3231 26.267 38.3316C26.1031 38.3402 25.9391 38.3163 25.7843 38.2615C25.6296 38.2066 25.4872 38.1219 25.3653 38.012C25.2433 37.9021 25.1442 37.7693 25.0736 37.6211C25.0029 37.4729 24.9622 37.3122 24.9537 37.1483L24.4253 27.0516V27.0483C24.357 25.8366 25.042 24.79 25.992 24.245C27.8427 23.1882 29.381 21.6608 30.4508 19.8176C31.5207 17.9745 32.084 15.8811 32.0837 13.75C32.0851 11.8067 31.6172 9.89175 30.7197 8.1681C29.8221 6.44446 28.5216 4.96309 26.9287 3.84998C26.9129 3.83677 26.8948 3.8266 26.8753 3.81998L26.8587 3.81831C26.8537 3.81831 26.8353 3.81831 26.807 3.83498C26.747 3.87164 26.667 3.96664 26.667 4.12998V11.9833C26.667 12.9966 26.142 13.9366 25.2787 14.4666L21.5287 16.775C21.069 17.0577 20.54 17.2075 20.0003 17.2075C19.4607 17.2075 18.9316 17.0577 18.472 16.775L14.722 14.4683C14.2981 14.2075 13.9479 13.8425 13.7049 13.4081C13.4619 12.9737 13.3341 12.4844 13.3337 11.9866V4.12831C13.3337 3.96498 13.2537 3.86998 13.1937 3.83498C13.1776 3.82605 13.1601 3.81986 13.142 3.81664L13.1253 3.81998Z" fill="white"/>
</svg>
